<svg width="42" height="43" viewBox="0 0 42 43" fill="none" xmlns="http://www.w3.org/2000/svg">
<path opacity="0.5" d="M42 21.5C42 33.0983 32.5983 42.5 21 42.5C9.4017 42.5 0 33.0983 0 21.5C0 9.9017 9.4017 0.5 21 0.5C32.5983 0.5 42 9.9017 42 21.5Z" fill="#FF565E"/>
<path d="M14.6369 15.14C14.9322 14.845 15.3325 14.6793 15.7499 14.6793C16.1673 14.6793 16.5676 14.845 16.8629 15.14L20.9999 19.277L25.1369 15.14C25.2811 14.9852 25.455 14.8611 25.6481 14.775C25.8413 14.6889 26.0499 14.6426 26.2614 14.6389C26.4729 14.6352 26.6829 14.6741 26.879 14.7533C27.0751 14.8325 27.2533 14.9504 27.4029 15.1C27.5524 15.2495 27.6703 15.4277 27.7495 15.6238C27.8288 15.8199 27.8677 16.03 27.8639 16.2415C27.8602 16.4529 27.8139 16.6615 27.7278 16.8547C27.6417 17.0479 27.5176 17.2218 27.3629 17.366L23.2259 21.503L27.3629 25.64C27.6411 25.9385 27.7925 26.3334 27.7853 26.7415C27.7781 27.1495 27.6129 27.5388 27.3243 27.8274C27.0357 28.1159 26.6464 28.2812 26.2384 28.2884C25.8303 28.2956 25.4354 28.1442 25.1369 27.866L20.9999 23.729L16.8629 27.866C16.5643 28.1442 16.1694 28.2956 15.7614 28.2884C15.3534 28.2812 14.964 28.1159 14.6755 27.8274C14.3869 27.5388 14.2216 27.1495 14.2144 26.7415C14.2072 26.3334 14.3587 25.9385 14.6369 25.64L18.7739 21.503L14.6369 17.366C14.3419 17.0706 14.1763 16.6703 14.1763 16.253C14.1763 15.8356 14.3419 15.4353 14.6369 15.14Z" fill="#FF565E"/>
</svg>
