<svg width="39" height="39" viewBox="0 0 39 39" fill="none" xmlns="http://www.w3.org/2000/svg">
<path fill-rule="evenodd" clip-rule="evenodd" d="M1.06275 13.1261C1.16229e-07 15.2126 0 17.9426 0 23.4026C0 28.8626 1.16229e-07 31.5926 1.06275 33.6791C1.9975 35.5136 3.489 37.0051 5.3235 37.9398C7.41 39.0026 10.14 39.0026 15.6 39.0026H23.4C28.86 39.0026 31.59 39.0026 33.6765 37.9398C35.511 37.0051 37.0025 35.5136 37.9373 33.6791C39 31.5926 39 28.8626 39 23.4026C39 17.9426 39 15.2126 37.9373 13.1261C37.0025 11.2916 35.511 9.80008 33.6765 8.86533C31.59 7.80258 28.86 7.80258 23.4 7.80258H15.6C10.14 7.80258 7.41 7.80258 5.3235 8.86533C3.489 9.80008 1.9975 11.2916 1.06275 13.1261ZM25.467 20.4776C25.7256 20.188 25.8585 19.8075 25.8366 19.4198C25.8146 19.0322 25.6396 18.6692 25.35 18.4106C25.0604 18.152 24.6799 18.019 24.2923 18.041C23.9046 18.0629 23.5416 18.238 23.283 18.5276L17.4116 25.1069L15.7151 23.2076C15.4558 22.9211 15.0936 22.7488 14.7078 22.7284C14.3219 22.7081 13.9437 22.8412 13.6557 23.0988C13.3676 23.3565 13.1933 23.7176 13.1707 24.1033C13.1481 24.4891 13.279 24.8681 13.535 25.1576L16.3196 28.2776C16.4567 28.4313 16.6248 28.5542 16.8129 28.6384C17.0009 28.7226 17.2046 28.7661 17.4106 28.7661C17.6166 28.7661 17.8203 28.7226 18.0083 28.6384C18.1963 28.5542 18.3644 28.4313 18.5016 28.2776L25.467 20.4776Z" fill="#0CAF60"/>
<path opacity="0.5" d="M19.5025 -0.00292969C28.6928 -0.00292969 33.289 -0.00292969 36.1457 2.85187C37.6219 4.32997 38.3356 6.27217 38.6807 9.07627V15.5971H0.322266V9.07627C0.665466 6.27217 1.37722 4.32997 2.85532 2.85187C5.71207 -0.00292969 10.3082 -0.00292969 19.5005 -0.00292969H19.5025Z" fill="#0CAF60"/>
</svg>
