<svg width="152" height="138" viewBox="0 0 152 138" fill="none" xmlns="http://www.w3.org/2000/svg">
<circle opacity="0.05" cx="79.2264" cy="73.7152" r="63.3812" fill="#0472ED"/>
<path fill-rule="evenodd" clip-rule="evenodd" d="M79.5069 50.4373C81.0493 65.4786 72.2088 71.7519 69.7036 73.2115C69.7243 73.3668 69.7347 73.5324 69.7347 73.698V95.1575L73.8547 97.4246H95.5213C95.5627 97.4246 95.6144 97.4246 95.6558 97.4349C100.645 98.1182 100.842 92.2176 100.842 91.4826C100.811 91.1099 101.018 90.7373 101.38 90.582C104.507 89.2362 103.182 85.0127 103.057 84.6503C102.892 84.2259 103.088 83.7394 103.503 83.5323C107.561 81.5655 105.004 78.0251 104.672 77.58C104.403 77.2901 104.362 76.845 104.579 76.493C111.929 65.2198 88.9685 68.0045 87.4985 68.1908C87.3847 68.2115 87.2604 68.2219 87.1362 68.1908C86.6497 68.0977 86.3391 67.6318 86.4323 67.1453C89.8588 49.7851 81.9603 49.9715 79.4862 50.4166L79.5069 50.4373Z" fill="#0472ED"/>
<path fill-rule="evenodd" clip-rule="evenodd" d="M68.2647 95.4166V73.6983C68.2647 73.1807 68.0576 72.7149 67.716 72.3836C67.3744 72.042 66.9086 71.835 66.4013 71.835H54.9107C54.3931 71.835 53.9273 72.042 53.596 72.3836C53.2544 72.7252 53.0474 73.1911 53.0474 73.6983V95.4166C53.0474 95.9342 53.2544 96.4 53.596 96.7313C53.9376 97.0729 54.4035 97.2799 54.9107 97.2799H66.4013C66.9189 97.2799 67.3847 97.0729 67.716 96.7313C67.9955 96.4518 68.1818 96.0895 68.244 95.6857C68.244 95.6236 68.244 95.5512 68.2647 95.4891C68.2647 95.4684 68.2647 95.4373 68.2647 95.4166Z" fill="#0472ED"/>
<path opacity="0.1" d="M95.6003 4.85563C95.0075 4.69339 94.4165 4.69994 93.7411 4.70743C93.5723 4.7093 93.4034 4.71117 93.2346 4.71304C94.0704 3.94412 94.9062 3.1752 95.4869 2.24029C95.6529 1.98523 95.3124 1.73578 95.1454 1.90645C94.1408 2.67724 93.2215 3.5315 92.3022 4.38575C92.2901 3.2886 92.2779 2.19145 92.2657 1.0943C92.2601 0.587926 91.5003 0.596349 91.5059 1.10273C91.5181 2.19988 91.5312 3.38142 91.5434 4.47857C90.7751 3.72743 90.0079 3.06068 89.2406 2.39394C88.9001 2.14449 88.4827 2.57115 88.8231 2.8206C89.4216 3.48921 90.02 4.15783 90.7029 4.82551C89.8587 4.83487 89.0144 4.84423 88.1712 4.93799C87.8335 4.94173 87.8391 5.44811 88.1768 5.44436C89.1908 5.51753 90.1194 5.50723 91.0481 5.49694C90.2957 6.18053 89.5444 6.94852 88.8774 7.71557C88.5435 8.0569 89.0547 8.47327 89.3896 8.21633C90.1419 7.53274 90.8951 6.93355 91.563 6.25089C91.5733 7.17925 91.5845 8.192 91.7636 9.11849C91.7655 9.28728 92.1032 9.28354 92.1858 9.11381C92.3452 8.26798 92.335 7.33962 92.3247 6.41126C92.5798 6.57725 92.7515 6.82856 93.0066 6.99455C93.5178 7.41091 94.029 7.82728 94.5393 8.15925C94.71 8.32617 94.9605 8.07017 94.7897 7.90325C94.362 7.40155 94.0187 6.89892 93.591 6.39722C93.334 6.06245 92.9935 5.813 92.7374 5.56262C93.1595 5.55794 93.4972 5.5542 93.9193 5.54952C94.5947 5.54203 95.1012 5.53642 95.7747 5.36014C95.8582 5.27481 95.8545 4.93722 95.6003 4.85563Z" fill="#030229"/>
<path opacity="0.1" d="M8.27505 47.446C7.68222 47.2838 7.09127 47.2903 6.41589 47.2978C6.24705 47.2997 6.0782 47.3015 5.90936 47.3034C6.74516 46.5345 7.58096 45.7656 8.16162 44.8307C8.32766 44.5756 7.98716 44.3262 7.82019 44.4968C6.73019 45.1842 5.81184 46.1228 4.89255 46.9771C4.88039 45.8799 4.86823 44.7828 4.85607 43.6856C4.85045 43.1792 4.09066 43.1877 4.09627 43.694C4.10843 44.7912 4.12153 45.9727 4.13369 47.0699C3.36547 46.3187 2.59819 45.652 1.83091 44.9852C1.49041 44.7358 1.07298 45.1625 1.41348 45.4119C2.01191 46.0805 2.61035 46.7491 3.29321 47.4168C2.44899 47.4262 1.60477 47.4355 0.761489 47.5293C0.423801 47.533 0.429414 48.0394 0.767102 48.0357C1.7811 48.1088 2.70974 48.0985 3.63839 48.0883C2.88607 48.7718 2.13469 49.5398 1.46774 50.3069C1.13379 50.6482 1.645 51.0646 1.97988 50.8076C2.7322 50.124 3.48545 49.5249 4.15334 48.8422C4.16363 49.7706 4.17485 50.7833 4.35399 51.7098C4.35586 51.8786 4.69355 51.8748 4.7761 51.7051C4.93559 50.8593 4.9253 49.9309 4.91501 49.0026C5.17014 49.1686 5.34179 49.4199 5.59693 49.5859C6.10814 50.0022 6.61935 50.4186 7.12962 50.7506C7.30034 50.9175 7.5508 50.6615 7.38008 50.4946C6.95236 49.9929 6.60906 49.4902 6.18134 48.9885C5.92433 48.6538 5.58383 48.4043 5.32776 48.1539C5.74987 48.1492 6.08756 48.1455 6.50967 48.1408C7.18504 48.1333 7.69158 48.1277 8.36508 47.9514C8.44857 47.8661 8.44482 47.5285 8.27505 47.446Z" fill="#030229"/>
<path d="M22.4879 19.5189C21.5537 19.0228 20.7038 18.5258 20.0191 17.6893C19.249 16.7694 18.8992 15.676 18.3805 14.5844C18.3805 14.5844 18.3795 14.5 18.2951 14.501L18.2107 14.5019C18.2107 14.5019 18.2107 14.5019 18.1272 14.5872C18.1272 14.5872 18.1272 14.5872 18.1282 14.6716C17.9001 16.9531 16.5672 18.5716 14.8946 20.0251C14.8111 20.1104 14.813 20.2792 14.8984 20.3627C16.765 21.186 18.0566 23.4507 18.6681 25.3009C18.7544 25.4687 19.0077 25.4659 19.0903 25.2962C19.4158 24.1953 19.6578 23.1797 20.2375 22.1604C20.8173 21.1411 21.5686 20.3731 22.4907 19.7721C22.5742 19.6867 22.5724 19.5179 22.4879 19.5189Z" fill="#0472ED"/>
<path d="M151.491 44.8362C150.557 44.3401 149.707 43.8431 149.107 43.0057C148.337 42.0858 147.987 40.9924 147.468 39.9008C147.468 39.9008 147.467 39.8164 147.383 39.8174L147.299 39.8183C147.299 39.8183 147.299 39.8183 147.215 39.9036C147.215 39.9036 147.215 39.9036 147.216 39.988C146.988 42.2695 145.655 43.888 143.983 45.3415C143.899 45.4268 143.901 45.5956 143.986 45.6791C145.853 46.5024 147.144 48.7671 147.756 50.6173C147.842 50.7851 148.096 50.7823 148.178 50.6126C148.504 49.5117 148.746 48.4961 149.325 47.4768C149.905 46.4575 150.657 45.6895 151.579 45.0885C151.579 45.0885 151.577 44.9197 151.491 44.8362Z" fill="#0472ED"/>
<path d="M89.6258 24.0832C88.9467 23.7531 88.4364 23.4211 87.9234 22.836C87.4093 22.1664 87.1477 21.4097 86.7171 20.6548C86.7171 20.6548 86.7171 20.6548 86.6327 20.6557L86.5483 20.6566C86.5483 20.6566 86.5483 20.6566 86.5492 20.741C86.3981 22.3464 85.4817 23.4539 84.311 24.4797C84.2275 24.5651 84.2284 24.6495 84.3129 24.6485C85.6702 25.2243 86.5321 26.8185 86.9683 28.0798C86.9702 28.2486 87.2234 28.2457 87.2216 28.077C87.382 27.3155 87.6268 26.5531 88.0415 25.8733C88.4561 25.1934 88.957 24.6815 89.6277 24.252C89.7121 24.2511 89.7103 24.0823 89.6258 24.0832Z" fill="#0472ED"/>
<path d="M68.0925 39.1345C66.904 38.5568 65.9688 37.9763 65.1978 36.972C64.2561 35.8007 63.8199 34.5395 63.214 33.1957C63.214 33.1957 63.2131 33.1113 63.1286 33.1122L63.0442 33.1132C63.0442 33.1132 62.9598 33.1141 62.9607 33.1985L62.9617 33.2829C62.6539 35.9873 61.0724 38.0306 59.065 39.741C58.9815 39.8263 58.9843 40.0795 59.1531 40.0776C61.4437 41.0651 62.9933 43.7489 63.6939 46.0202C63.7811 46.2724 64.1188 46.2687 64.2004 46.0145C64.5241 44.7449 64.9322 43.4742 65.5944 42.2852C66.2567 41.0962 67.1751 40.1575 68.3495 39.4692C68.1806 39.4711 68.2623 39.217 68.0925 39.1345Z" fill="#0472ED"/>
<path d="M47.8471 17.8777C46.6465 16.2029 45.4468 14.6125 43.9122 13.279C43.0605 12.6132 42.2088 11.9474 41.2746 11.4513C40.7652 11.2037 40.2568 11.0405 39.7475 10.793C39.4933 10.7114 39.2391 10.6298 38.984 10.4638C38.7298 10.3822 38.559 10.2153 38.3067 10.3025C38.1379 10.3044 38.0544 10.3897 38.1407 10.5576C38.2298 10.9786 38.7391 11.2262 39.0796 11.4756C39.5055 11.8085 39.9304 12.057 40.3562 12.3899C41.207 12.9714 42.0587 13.6372 42.826 14.3039C44.2761 15.6383 45.4739 17.06 46.5892 18.6513C47.1042 19.4053 48.363 18.7161 47.8471 17.8777Z" fill="#FF8F6B"/>
<path d="M47.2463 51.741C46.5532 50.145 44.9398 49.3188 43.3283 48.6614C41.7168 48.004 39.853 47.4338 38.1673 47.7057C36.5652 47.8923 34.8036 48.9247 34.2294 50.4504C33.8195 51.5522 33.4152 53.1604 34.4376 53.9932C34.9497 54.4939 35.8793 54.568 36.3802 54.056C37.216 53.2871 36.4431 52.114 35.7612 51.5307C32.9472 49.0297 28.2243 49.5041 25.1165 50.9734C23.1842 51.8389 21.5117 53.2924 20.5201 55.2447C19.6927 56.7732 18.794 59.4842 19.9093 61.0755C20.0809 61.3269 20.4186 61.3231 20.5847 61.0681C21.4993 59.7918 21.4787 57.9351 22.1391 56.5773C22.7986 55.1351 23.883 53.9413 25.1409 53.1677C27.7392 51.4508 32.2043 50.5573 34.9263 52.384C35.2668 52.6335 36.202 53.2139 35.7011 53.7259C35.2837 54.1526 34.6036 53.7381 34.3466 53.4033C33.313 51.5578 35.7388 49.5052 37.2537 49.0664C38.7686 48.6275 40.5461 49.0299 41.9878 49.6047C43.5975 50.0933 45.4651 51.0011 46.4087 52.3411C46.8326 52.5053 47.4199 52.1611 47.2463 51.741Z" fill="#EF37FF"/>
<path d="M121.361 38.3337C121.446 38.3328 121.445 38.2484 121.36 38.2493C121.276 38.2502 121.277 38.3346 121.361 38.3337Z" fill="#3F3937"/>
<path d="M122.105 36.8901C123.511 34.1736 126.434 31.2713 129.737 32.2476C130.923 32.5721 132.455 33.6524 132.303 35.1734C132.23 36.1871 131.04 35.525 130.613 35.1077C129.588 34.0218 130.073 32.0751 130.397 30.8054C130.885 29.1118 131.964 27.4961 133.388 26.4675C134.56 25.526 136.159 25.0863 137.593 24.9016C139.195 24.715 140.635 25.2055 142.159 25.5262C142.751 25.604 143.165 24.9242 142.739 24.5069C141.628 23.3375 139.684 23.1902 138.167 23.3759C136.564 23.5625 134.881 24.0032 133.54 24.9465C130.858 26.7487 128.874 30.569 129.163 33.7733C129.348 35.2061 131.235 37.8862 132.822 36.3493C133.575 35.6657 133.307 34.4026 132.96 33.5624C132.355 32.303 130.995 31.474 129.725 31.1504C125.915 30.1798 122.996 33.4196 121.596 36.6426C121.515 36.8967 121.939 37.1452 122.105 36.8901Z" fill="#EF37FF"/>
<path d="M49.0695 33.4041C47.8689 31.7293 46.3352 30.4802 44.553 29.6559C43.6197 29.2442 42.6873 28.9169 41.7568 28.7584C40.9107 28.599 39.6435 28.5286 38.8883 28.959C38.7204 29.0453 38.7232 29.2985 38.894 29.4654C39.574 29.8799 40.588 29.953 41.3497 30.1134C42.2811 30.3563 43.0437 30.6011 43.8926 31.0137C45.5051 31.7555 47.0368 32.8358 48.1493 34.174C48.577 34.6757 49.4982 33.9902 49.0695 33.4041Z" fill="#FF8F6B"/>
<path d="M29.7992 39.2733C30.5572 39.0961 31.4004 39.0023 32.1602 38.9939C32.5823 38.9892 33.0045 38.9846 33.4266 38.9799C33.6798 38.9771 33.9331 38.9743 34.101 38.888C34.2689 38.8017 34.4378 38.7999 34.6057 38.7136C34.7736 38.6273 34.7708 38.3741 34.601 38.2916C34.4312 38.2091 34.2614 38.1266 34.1761 38.0431C34.0063 37.9606 33.6686 37.9643 33.4988 37.8818C33.0767 37.8865 32.6546 37.8911 32.149 37.9812C31.3057 38.0749 30.4634 38.2531 29.622 38.5156C29.1164 38.6056 29.2936 39.3633 29.7992 39.2733Z" fill="#FF8F6B"/>
<path d="M119.737 59.3686C122.085 57.9077 124.604 56.6981 127.297 55.9086C128.56 55.5569 129.907 55.2044 131.256 55.0206C132.015 54.9278 132.689 54.8359 133.448 54.7431C134.039 54.7366 134.63 54.73 135.134 54.4712C135.302 54.3849 135.299 54.1317 135.129 54.0492C134.535 53.8026 133.945 53.8935 133.27 53.901C132.51 53.9094 131.836 54.0013 131.076 54.0097C129.642 54.11 128.209 54.3791 126.778 54.7326C123.915 55.4396 121.396 56.7336 119.053 58.6166C118.719 58.9579 119.233 59.6274 119.737 59.3686Z" fill="#FF8F6B"/>
<path d="M115.05 55.4535C117.053 53.3212 119.654 51.8574 122.171 50.3946C123.429 49.7054 124.772 48.9309 126.116 48.3251C126.872 47.9791 127.544 47.634 128.215 47.289C128.887 46.9439 129.645 46.7667 130.316 46.3372C130.483 46.2509 130.481 45.9978 130.226 45.9162C129.549 45.7549 128.792 46.0165 128.118 46.1084C127.275 46.2021 126.518 46.4637 125.761 46.8097C124.249 47.5017 122.738 48.2781 121.312 49.138C118.543 50.688 116.113 52.3187 114.199 54.8721C113.866 55.2978 114.632 55.7958 115.05 55.4535Z" fill="#FF8F6B"/>
<path d="M101.182 15.514C101.095 15.2618 101.092 15.0086 101.004 14.6719C101.002 14.5031 100.917 14.4197 100.916 14.3353C100.915 14.2509 100.914 14.1665 100.829 14.083C100.828 13.9986 100.743 13.9996 100.742 13.9152C100.657 13.8317 100.572 13.7483 100.487 13.7492C100.403 13.7501 100.319 13.8355 100.236 13.9208C100.237 14.0052 100.152 14.0061 100.153 14.0905C100.154 14.1749 100.155 14.2593 100.156 14.3437C100.158 14.5125 100.16 14.6813 100.246 14.8491C100.249 15.1023 100.336 15.3546 100.423 15.6068L100.422 15.5224L100.423 15.6068C100.424 15.6912 100.51 15.8591 100.596 15.9426C100.681 16.026 100.851 16.1085 100.934 16.0232C101.019 16.0223 101.187 15.936 101.186 15.8516C101.186 15.8516 101.184 15.6828 101.182 15.514Z" fill="#030229"/>
<path d="M104.694 27.6296C104.754 25.4344 105.408 23.4858 106.145 21.4518C106.556 20.4344 106.968 19.5014 107.464 18.5674C107.961 17.6334 108.459 16.8682 108.701 15.8527C108.699 15.6839 108.527 15.4326 108.36 15.6032C107.942 15.9455 107.691 16.2015 107.358 16.6272C107.11 17.052 106.862 17.5612 106.614 17.986C106.118 19.0043 105.623 20.0227 105.213 21.1245C104.476 23.1585 104.079 25.4418 104.019 27.6371C104.108 28.0581 104.699 28.0516 104.694 27.6296Z" fill="#FF8F6B"/>
<path d="M111.797 13.3707C111.879 13.201 111.963 13.1157 112.045 12.9459C112.045 12.9459 112.046 13.0303 111.962 13.0313C111.962 13.0313 111.961 12.9469 112.045 12.9459L112.129 12.8606C112.212 12.7753 112.212 12.7753 112.296 12.6899C112.462 12.4349 112.713 12.2633 112.879 12.0082C113.045 11.7532 113.297 11.5816 113.463 11.3265C113.545 11.1568 113.713 11.0705 113.796 10.9008C113.795 10.8164 113.879 10.8154 113.878 10.731C113.962 10.6457 113.961 10.5613 113.96 10.4769C114.043 10.3072 113.871 10.0559 113.618 10.0587C113.533 10.0596 113.449 10.0605 113.28 10.0624C113.196 10.0634 113.197 10.1478 113.112 10.1487C113.112 10.1487 113.112 10.1487 113.028 10.1496C113.112 10.1487 113.112 10.1487 113.028 10.1496C112.859 10.1515 112.692 10.3222 112.524 10.4084C112.188 10.581 111.938 10.837 111.687 11.093C111.437 11.349 111.186 11.6049 111.021 11.9444C110.855 12.1995 110.606 12.5399 110.524 12.794C110.358 13.049 110.447 13.4701 110.787 13.6351C111.294 13.7139 111.631 13.6258 111.797 13.3707Z" fill="#FF8F6B"/>
<path d="M109.017 29.1854C109.263 28.5074 109.594 27.9129 109.84 27.235C110.086 26.557 110.332 25.9634 110.663 25.2845C110.994 24.69 111.239 24.012 111.571 23.4175C111.902 22.823 112.402 22.2266 112.479 21.5505C112.476 21.2973 112.222 21.2157 112.053 21.2176C111.379 21.3938 111.05 22.1572 110.634 22.6682C110.134 23.2646 109.803 23.9435 109.473 24.6224C109.143 25.3013 108.897 25.9793 108.652 26.7417C108.572 27.0802 108.407 27.4197 108.411 27.8416C108.331 28.1802 108.335 28.6021 108.339 28.9397C108.259 29.3626 108.852 29.5249 109.017 29.1854Z" fill="#FF8F6B"/>
<path d="M113.643 19.9342C113.807 19.5104 114.057 19.17 114.306 18.8296C114.638 18.3195 114.801 17.7268 115.134 17.3011C115.467 16.8754 115.887 16.7019 116.305 16.3597C116.724 16.0174 117.142 15.6751 117.56 15.2485C119.147 13.7116 120.989 12.3406 122.919 11.222C123.422 10.9631 123.926 10.7043 124.43 10.4455C124.766 10.273 125.268 9.92981 125.01 9.51063C124.579 8.67135 122.903 9.78722 122.399 10.046C120.469 11.1647 118.883 12.786 117.126 14.2404C116.623 14.5836 116.206 15.0102 115.789 15.4369C115.371 15.8636 115.04 16.4581 114.623 16.8847C114.205 17.3114 113.701 17.5702 113.284 17.9969C112.95 18.3382 112.702 18.8474 112.539 19.3556C112.209 20.0345 113.229 20.6985 113.643 19.9342Z" fill="#FF8F6B"/>
<path opacity="0.5" d="M73.6762 24.8508C74.0064 24.1719 74.0815 23.327 73.9887 22.5683C73.9793 21.7244 73.8855 20.8814 73.7083 20.1237C73.7064 19.9549 73.3687 19.9586 73.3706 20.1274C73.2946 20.8879 73.303 21.6475 73.3123 22.4914C73.3198 23.1666 73.3283 23.9262 73.0815 24.5197C72.9174 24.9436 73.5121 25.2746 73.6762 24.8508Z" fill="#EF37FF"/>
<g opacity="0.5">
<path d="M73.7236 13.8773C73.7151 13.1177 73.7911 12.3572 73.6992 11.683C73.6064 10.9243 73.3457 10.252 72.9161 9.58148C72.8298 9.41363 72.493 9.50176 72.5802 9.75402C72.9329 11.1006 72.9488 12.5353 72.9647 13.9701C72.885 14.393 73.7292 14.3836 73.7236 13.8773Z" fill="#EF37FF"/>
</g>
<path opacity="0.5" d="M69.9291 6.66036C69.7527 5.98706 69.492 5.3147 69.1477 4.72767C68.9761 4.47635 68.8879 4.1397 68.7163 3.88838C68.5446 3.63707 68.3702 3.13256 68.0325 3.13631C67.8636 3.13818 67.6948 3.14005 67.6122 3.30978C67.4471 3.64923 67.7041 3.98401 67.8767 4.31972C68.0484 4.57104 68.221 4.90675 68.3082 5.15901C68.6524 5.74603 68.9122 6.334 69.0876 6.9229C69.2621 7.42741 70.1035 7.16486 69.9291 6.66036Z" fill="#EF37FF"/>
<path opacity="0.5" d="M73.7989 5.43575C73.9602 4.75871 74.0363 3.99821 74.1123 3.23771C74.1085 2.90012 74.1038 2.47814 74.1001 2.14056C74.0963 1.80297 74.0917 1.38099 73.9191 1.04528C73.8319 0.793027 73.4942 0.79677 73.4125 1.05089C73.2474 1.39035 73.2521 1.81233 73.2559 2.14992C73.2596 2.4875 73.2634 2.82508 73.2671 3.16267C73.2746 3.83784 73.1976 4.51394 73.1207 5.19005C73.1226 5.35884 73.2098 5.61109 73.3786 5.60922C73.5494 5.77614 73.8017 5.68894 73.7989 5.43575Z" fill="#EF37FF"/>
<path opacity="0.5" d="M77.0342 7.84765C77.1937 7.00182 77.5229 6.23851 77.9376 5.55866C78.3522 4.87881 78.9366 4.28149 79.4356 3.6007C79.5182 3.43097 79.431 3.17872 79.263 3.26499C78.3372 3.52847 77.6703 4.29552 77.2566 5.05977C76.7585 5.82495 76.5155 6.75611 76.356 7.60195C76.1928 8.1102 76.9554 8.35496 77.0342 7.84765Z" fill="#EF37FF"/>
<path d="M132.874 40.9913C132.957 40.906 132.956 40.8216 133.04 40.7363C133.122 40.5665 133.205 40.3968 133.203 40.228C133.201 40.0592 133.2 39.9748 133.283 39.8051L133.282 39.7207C133.281 39.6363 133.28 39.5519 133.279 39.4675C133.277 39.2987 133.275 39.1299 133.189 38.9621C133.187 38.7933 133.102 38.7098 133.016 38.6264C132.844 38.2907 132.503 38.0412 132.08 37.9615C132.25 38.044 132.42 38.1265 132.591 38.2935C132.42 38.1265 132.25 38.044 132.081 38.0459C131.911 37.9634 131.743 37.9652 131.659 38.0506C131.49 38.0524 131.407 38.1378 131.239 38.224C131.071 38.3103 130.904 38.481 130.821 38.6507C131.073 38.4791 131.24 38.3084 131.491 38.1368C131.407 38.1378 131.323 38.2231 131.239 38.224C131.071 38.3103 130.903 38.3966 130.82 38.4819C130.736 38.5672 130.653 38.6526 130.569 38.7379C130.57 38.8223 130.486 38.8232 130.487 38.9076C130.487 38.992 130.404 39.0774 130.405 39.1618C130.488 39.0764 130.487 38.9076 130.57 38.8223C130.571 38.9067 130.487 38.9076 130.487 38.992C130.488 39.0764 130.404 39.0774 130.405 39.1618C130.321 39.2471 130.323 39.4159 130.24 39.5012C130.157 39.6709 130.075 39.8407 130.078 40.0939C129.995 40.2636 130.082 40.5158 130.084 40.6846C130.17 40.8525 130.257 41.0203 130.343 41.1882C130.429 41.3561 130.6 41.523 130.77 41.6055C130.855 41.689 131.024 41.6871 131.109 41.7706C131.363 41.8521 131.701 41.8484 131.954 41.7612C132.037 41.6759 132.206 41.674 132.289 41.5887C132.625 41.4161 132.791 41.1611 132.874 40.9913Z" fill="#FF8F6B"/>
<path d="M129.509 11.7396C129.508 11.6552 129.424 11.6562 129.423 11.5718C129.338 11.4883 129.252 11.4049 129.251 11.3205C129.251 11.3205 129.166 11.237 129.082 11.2379C128.912 11.1554 128.911 11.071 128.657 10.9894C128.572 10.9904 128.403 10.9078 128.318 10.9088C128.234 10.9097 128.065 10.9116 128.065 10.9116L127.813 10.9988C127.645 11.0851 127.561 11.1704 127.479 11.3401C127.395 11.4254 127.395 11.4254 127.396 11.5098C127.397 11.5942 127.313 11.5952 127.313 11.6796C127.231 11.8493 127.149 12.1034 127.152 12.3566C127.155 12.6098 127.241 12.7777 127.328 13.0299C127.586 13.4491 128.011 13.6976 128.433 13.6929C128.856 13.6882 129.359 13.4294 129.523 13.0056C129.606 12.8358 129.688 12.5817 129.685 12.3285C129.683 12.1597 129.597 11.9919 129.509 11.7396Z" fill="#FF8F6B"/>
<path d="M67.4032 22.5567C66.7026 20.2855 67.0132 17.8342 67.41 15.5509C67.4081 15.3821 67.2384 15.2995 67.1558 15.4693C66.3368 17.7573 66.1126 20.3764 66.8142 22.732C66.8188 23.154 67.4923 22.9777 67.4032 22.5567Z" fill="#030229"/>
</svg>
