<svg width="42" height="42" viewBox="0 0 42 42" fill="none" xmlns="http://www.w3.org/2000/svg">
<path opacity="0.5" d="M21 42C32.5983 42 42 32.5983 42 21C42 9.4017 32.5983 0 21 0C9.4017 0 0 9.4017 0 21C0 24.36 0.7896 27.5352 2.1903 30.3513C2.5641 31.0989 2.688 31.9536 2.4717 32.7621L1.2222 37.4367C1.09891 37.8992 1.09937 38.3859 1.22354 38.8482C1.34772 39.3104 1.59123 39.7319 1.92967 40.0703C2.26811 40.4088 2.68958 40.6523 3.15182 40.7765C3.61406 40.9006 4.10082 40.9011 4.5633 40.7778L9.2379 39.5283C10.0494 39.3241 10.9075 39.4234 11.6508 39.8076C14.5549 41.2537 17.7557 42.0043 21 42Z" fill="#FF5A41"/>
<path d="M22.5751 12.6004C22.5751 12.1827 22.4092 11.7821 22.1138 11.4867C21.8184 11.1913 21.4178 11.0254 21.0001 11.0254C20.5824 11.0254 20.1818 11.1913 19.8864 11.4867C19.591 11.7821 19.4251 12.1827 19.4251 12.6004V12.6214C17.1382 13.1989 15.2251 15.0007 15.2251 17.4997C15.2251 20.5594 18.0916 22.5754 21.0001 22.5754C22.7305 22.5754 23.6251 23.6947 23.6251 24.5011C23.6251 25.3075 22.7305 26.4247 21.0001 26.4247C19.2697 26.4247 18.3751 25.3075 18.3751 24.5011C18.3751 24.0834 18.2092 23.6828 17.9138 23.3874C17.6184 23.092 17.2178 22.9261 16.8001 22.9261C16.3824 22.9261 15.9818 23.092 15.6864 23.3874C15.391 23.6828 15.2251 24.0834 15.2251 24.5011C15.2251 27.0001 17.1382 28.804 19.4251 29.3794V29.4004C19.4251 29.8181 19.591 30.2187 19.8864 30.5141C20.1818 30.8095 20.5824 30.9754 21.0001 30.9754C21.4178 30.9754 21.8184 30.8095 22.1138 30.5141C22.4092 30.2187 22.5751 29.8181 22.5751 29.4004V29.3794C24.862 28.804 26.7751 27.0001 26.7751 24.5011C26.7751 21.4414 23.9086 19.4254 21.0001 19.4254C19.2697 19.4254 18.3751 18.3061 18.3751 17.4997C18.3751 16.6933 19.2697 15.5761 21.0001 15.5761C22.7305 15.5761 23.6251 16.6933 23.6251 17.4997C23.6251 17.9174 23.791 18.318 24.0864 18.6134C24.3818 18.9088 24.7824 19.0747 25.2001 19.0747C25.6178 19.0747 26.0184 18.9088 26.3138 18.6134C26.6092 18.318 26.7751 17.9174 26.7751 17.4997C26.7751 15.0007 24.862 13.1989 22.5751 12.6214V12.6004Z" fill="#FF5A41"/>
</svg>
