<svg width="96" height="27" viewBox="0 0 96 27" fill="none" xmlns="http://www.w3.org/2000/svg">
<path d="M9.72811 11.6318V5.04779C9.72811 3.75705 9.21584 2.51901 8.30389 1.60556C7.39194 0.692118 6.1548 0.177901 4.86405 0.175781C3.57331 0.177901 2.33616 0.692118 1.42422 1.60556C0.51227 2.51901 -1.74011e-06 3.75705 0 5.04779V21.9757C-1.74011e-06 23.2665 0.51227 24.5045 1.42422 25.4179C2.33616 26.3314 3.57331 26.8456 4.86405 26.8477C6.1548 26.8456 7.39194 26.3314 8.30389 25.4179C9.21584 24.5045 9.72811 23.2665 9.72811 21.9757V18.9918C9.06411 18.8478 8.40011 18.6797 7.72811 18.4797V21.9757C7.72916 22.3525 7.65575 22.7258 7.51229 23.0742C7.36883 23.4226 7.15803 23.7393 6.89198 24.0061C6.62593 24.2729 6.3099 24.4845 5.9619 24.629C5.6139 24.7734 5.24083 24.8478 4.86405 24.8478C4.48727 24.8478 4.1142 24.7734 3.7662 24.629C3.41821 24.4845 3.10218 24.2729 2.83613 24.0061C2.57008 23.7393 2.35927 23.4226 2.21582 23.0742C2.07236 22.7258 1.99894 22.3525 2 21.9757V5.04779C2 4.28821 2.30176 3.55975 2.83886 3.02265C3.37596 2.48555 4.10447 2.18378 4.86405 2.18378C5.62363 2.18378 6.35214 2.48555 6.88924 3.02265C7.42635 3.55975 7.72811 4.28821 7.72811 5.04779V10.9038C8.38057 11.1838 9.04829 11.4269 9.72811 11.6318Z" fill="#222950"/>
<path d="M24.1279 0.151855C23.4881 0.151855 22.8546 0.277864 22.2635 0.522704C21.6724 0.767545 21.1352 1.1264 20.6828 1.57881C20.2304 2.03121 19.8716 2.56832 19.6268 3.15942C19.3819 3.75051 19.2559 4.38402 19.2559 5.02382V11.6318C19.9395 11.4305 20.6101 11.1874 21.2639 10.9038V5.04784C21.2639 4.28826 21.5656 3.5598 22.1027 3.0227C22.6398 2.4856 23.3683 2.18383 24.1279 2.18383C24.5047 2.18278 24.878 2.2561 25.2264 2.39956C25.5748 2.54301 25.8914 2.75377 26.1582 3.01982C26.425 3.28587 26.6366 3.60199 26.781 3.94999C26.9255 4.29799 26.9998 4.67106 26.9998 5.04784V21.9758C26.9998 22.7375 26.6974 23.468 26.1588 24.0066C25.6202 24.5452 24.8896 24.8478 24.1279 24.8478C23.7511 24.8478 23.3781 24.7734 23.0301 24.629C22.6821 24.4846 22.366 24.2729 22.1 24.0061C21.8339 23.7393 21.6231 23.4227 21.4797 23.0743C21.3362 22.7259 21.2628 22.3526 21.2639 21.9758V18.4798C20.5919 18.6798 19.9279 18.8478 19.2559 18.9918V21.9758C19.2559 22.6156 19.3819 23.2491 19.6268 23.8402C19.8716 24.4313 20.2304 24.9684 20.6828 25.4208C21.1352 25.8732 21.6724 26.2321 22.2635 26.4769C22.8546 26.7217 23.4881 26.8478 24.1279 26.8478C25.4201 26.8478 26.6592 26.3345 27.5728 25.4208C28.4865 24.5071 28.9998 23.2679 28.9998 21.9758V5.04784C29.0029 4.40603 28.8793 3.76989 28.6359 3.17602C28.3925 2.58215 28.0342 2.04225 27.5814 1.5873C27.1287 1.13235 26.5905 0.771339 25.9978 0.524999C25.4052 0.278659 24.7697 0.151848 24.1279 0.151855Z" fill="#222950"/>
<path d="M14.4962 16.8957C10.9858 16.8599 7.53287 15.9994 4.41614 14.3837C4.29832 14.3251 4.19329 14.2437 4.10696 14.1444C4.02064 14.045 3.95484 13.9296 3.91322 13.8047C3.87159 13.6799 3.85494 13.548 3.86439 13.4167C3.87383 13.2855 3.90922 13.1574 3.96829 13.0397C4.02695 12.9219 4.1082 12.8168 4.20755 12.7305C4.30691 12.6442 4.42233 12.5783 4.5472 12.5367C4.67206 12.495 4.80401 12.4785 4.93528 12.4879C5.06656 12.4974 5.19462 12.5327 5.31224 12.5917C8.13737 14.1216 11.2994 14.9228 14.5122 14.9228C17.725 14.9228 20.8871 14.1216 23.7122 12.5917C23.8298 12.5327 23.9579 12.4974 24.0892 12.4879C24.2204 12.4785 24.3524 12.495 24.4772 12.5367C24.6021 12.5783 24.7175 12.6442 24.8169 12.7305C24.9162 12.8168 24.9975 12.9219 25.0561 13.0397C25.1152 13.1574 25.1506 13.2855 25.16 13.4167C25.1695 13.548 25.1528 13.6799 25.1112 13.8047C25.0696 13.9296 25.0038 14.045 24.9175 14.1444C24.8311 14.2437 24.7259 14.3251 24.6081 14.3837C21.4817 16.0042 18.0175 16.8649 14.4962 16.8957Z" fill="#222950"/>
<path d="M39.2009 21L43.9861 7.39321H46.6527L51.4379 21H49.1366L48.0955 17.9499H42.5615L41.5022 21H39.2009ZM43.1825 16.0322H47.438L45.0272 8.90913H45.6299L43.1825 16.0322ZM57.0605 21.2192C56.1108 21.2192 55.2585 20.9939 54.5036 20.5434C53.7608 20.0807 53.1703 19.4597 52.7319 18.6805C52.3058 17.9012 52.0927 17.0245 52.0927 16.0504C52.0927 15.0763 52.3119 14.1996 52.7502 13.4204C53.1885 12.6411 53.7791 12.0262 54.5218 11.5757C55.2646 11.1252 56.1047 10.8999 57.0423 10.8999C57.8337 10.8999 58.5338 11.0582 59.1426 11.3748C59.7515 11.6914 60.2324 12.1297 60.5855 12.6898L60.275 13.1647V7.17404H62.3206V21H60.3663V18.9909L60.6038 19.3745C60.2628 19.9711 59.7758 20.4277 59.1426 20.7443C58.5095 21.0609 57.8155 21.2192 57.0605 21.2192ZM57.2614 19.3014C57.8337 19.3014 58.3451 19.1614 58.7956 18.8814C59.2583 18.6013 59.6175 18.2178 59.8732 17.7307C60.1411 17.2315 60.275 16.6714 60.275 16.0504C60.275 15.4294 60.1411 14.8754 59.8732 14.3884C59.6175 13.9013 59.2583 13.5178 58.7956 13.2377C58.3451 12.9577 57.8337 12.8177 57.2614 12.8177C56.6892 12.8177 56.1717 12.9577 55.709 13.2377C55.2463 13.5178 54.8871 13.9013 54.6314 14.3884C54.3757 14.8754 54.2479 15.4294 54.2479 16.0504C54.2479 16.6714 54.3757 17.2315 54.6314 17.7307C54.8871 18.2178 55.2402 18.6013 55.6907 18.8814C56.1534 19.1614 56.677 19.3014 57.2614 19.3014ZM64.7301 21V11.1191H66.7026V13.256L66.4469 12.9272C66.6539 12.2576 67.0313 11.7523 67.5793 11.4113C68.1272 11.0704 68.7543 10.8999 69.4605 10.8999C70.2519 10.8999 70.952 11.113 71.5608 11.5392C72.1818 11.9532 72.5958 12.5072 72.8028 13.2012L72.2184 13.256C72.5106 12.4646 72.955 11.874 73.5516 11.4844C74.1604 11.0947 74.8545 10.8999 75.6337 10.8999C76.3156 10.8999 76.9305 11.0582 77.4784 11.3748C78.0385 11.6914 78.483 12.1297 78.8117 12.6898C79.1405 13.2499 79.3048 13.8892 79.3048 14.6075V21H77.241V15.1737C77.241 14.6745 77.1497 14.2544 76.967 13.9135C76.7966 13.5604 76.553 13.2925 76.2365 13.1099C75.9321 12.9151 75.5729 12.8177 75.1589 12.8177C74.7449 12.8177 74.3796 12.9151 74.063 13.1099C73.7465 13.2925 73.4968 13.5604 73.3142 13.9135C73.1316 14.2666 73.0402 14.6867 73.0402 15.1737V21H70.9947V15.1737C70.9947 14.6745 70.9033 14.2544 70.7207 13.9135C70.5502 13.5604 70.3067 13.2925 69.9901 13.1099C69.6857 12.9151 69.3204 12.8177 68.8943 12.8177C68.4803 12.8177 68.115 12.9151 67.7984 13.1099C67.4818 13.2925 67.2322 13.5604 67.0496 13.9135C66.8791 14.2666 66.7939 14.6867 66.7939 15.1737V21H64.7301ZM81.5138 21V11.1191H83.5777V21H81.5138ZM81.5138 9.76755V7.39321H83.5777V9.76755H81.5138ZM85.9907 21V11.1191H87.9632V13.0551L87.7258 12.7994C87.9693 12.1784 88.3589 11.7096 88.8947 11.3931C89.4304 11.0643 90.0514 10.8999 90.7576 10.8999C91.4882 10.8999 92.1335 11.0582 92.6936 11.3748C93.2537 11.6914 93.692 12.1297 94.0086 12.6898C94.3252 13.2499 94.4835 13.8952 94.4835 14.6258V21H92.4379V15.1737C92.4379 14.6745 92.3466 14.2544 92.1639 13.9135C91.9813 13.5604 91.7195 13.2925 91.3786 13.1099C91.0498 12.9151 90.6724 12.8177 90.2462 12.8177C89.82 12.8177 89.4365 12.9151 89.0956 13.1099C88.7668 13.2925 88.5111 13.5604 88.3285 13.9135C88.1458 14.2666 88.0545 14.6867 88.0545 15.1737V21H85.9907Z" fill="#222950"/>
</svg>
