<svg width="442" height="412" viewBox="0 0 442 412" fill="none" xmlns="http://www.w3.org/2000/svg">
<path opacity="0.1" d="M221 411.258C343.055 411.258 442 402.082 442 390.763C442 379.444 343.055 370.269 221 370.269C98.945 370.269 0 379.444 0 390.763C0 402.082 98.945 411.258 221 411.258Z" fill="#2563EB"/>
<path d="M348.262 183.386L343.298 184.146L349.043 221.657L354.008 220.896L348.262 183.386Z" fill="#FAB623"/>
<path d="M348.259 183.412L343.349 184.193L344.465 180.399L345.023 178.39L346.139 180.064L348.259 183.412Z" fill="#FF8C64"/>
<path d="M353.614 218.226L348.649 218.986L349.072 221.744L354.036 220.984L353.614 218.226Z" fill="#35252F"/>
<path d="M354.062 223.145L349.71 223.814C349.486 223.814 349.375 223.703 349.375 223.479L349.04 221.582L354.062 220.801L354.397 222.698C354.397 222.921 354.286 223.145 354.062 223.145Z" fill="#EF452F"/>
<path d="M346.137 180.064L344.463 180.399L345.021 178.39L346.137 180.064Z" fill="#35252F"/>
<path d="M348.663 218.988L353.627 218.228L353.323 216.242L348.359 217.002L348.663 218.988Z" fill="#F68407"/>
<path d="M344.799 185.867L349.04 213.658C349.04 213.881 349.264 213.993 349.487 213.993C349.71 213.993 349.822 213.769 349.822 213.546L345.581 185.756C345.581 185.533 345.357 185.421 345.134 185.421C344.911 185.421 344.799 185.644 344.799 185.867Z" fill="#F68407"/>
<path d="M346.808 185.532L351.049 213.323C351.049 213.546 351.272 213.658 351.495 213.658C351.718 213.658 351.83 213.434 351.83 213.211L347.589 185.421C347.589 185.198 347.366 185.086 347.142 185.086C346.919 185.086 346.808 185.309 346.808 185.532Z" fill="#F68407"/>
<path d="M357.24 183.515L352.217 183.531L352.341 221.478L357.363 221.462L357.24 183.515Z" fill="#4F9D5C"/>
<path d="M357.299 183.522L352.277 183.634L353.951 179.951L354.732 178.165L355.625 179.951L357.299 183.522Z" fill="#FF8C64"/>
<path d="M357.409 218.783L352.386 218.8L352.395 221.59L357.418 221.574L357.409 218.783Z" fill="#35252F"/>
<path d="M357.077 223.702H352.724C352.501 223.702 352.389 223.59 352.389 223.367V221.47H357.412V223.367C357.412 223.59 357.3 223.702 357.077 223.702Z" fill="#EF452F"/>
<path d="M355.626 179.952H353.952L354.733 178.166L355.626 179.952Z" fill="#35252F"/>
<path d="M352.384 218.801L357.407 218.784L357.4 216.775L352.378 216.792L352.384 218.801Z" fill="#3C7341"/>
<path d="M353.504 185.42L353.615 213.545C353.615 213.768 353.839 213.88 353.95 213.88C354.174 213.88 354.285 213.657 354.285 213.545L354.174 185.42C354.174 185.197 353.95 185.085 353.839 185.085C353.727 185.085 353.504 185.197 353.504 185.42Z" fill="#3C7341"/>
<path d="M355.514 185.421L355.625 213.546C355.625 213.769 355.848 213.881 355.96 213.881C356.183 213.881 356.295 213.658 356.295 213.546L356.183 185.421C356.183 185.198 355.96 185.086 355.848 185.086C355.625 185.086 355.514 185.198 355.514 185.421Z" fill="#3C7341"/>
<path d="M365.986 184.093L361.014 183.387L355.675 220.958L360.647 221.664L365.986 184.093Z" fill="#1B6BFE"/>
<path d="M366.005 184.082L360.982 183.412L363.103 180.064L364.219 178.39L364.889 180.287L366.005 184.082Z" fill="#FF8C64"/>
<path d="M361.053 218.966L356.08 218.26L355.687 221.022L360.66 221.729L361.053 218.966Z" fill="#35252F"/>
<path d="M359.978 223.814L355.625 223.144C355.402 223.144 355.291 222.921 355.291 222.809L355.514 220.912L360.536 221.582L360.313 223.479C360.313 223.702 360.201 223.814 359.978 223.814Z" fill="#EF452F"/>
<path d="M364.889 180.287L363.103 180.064L364.219 178.39L364.889 180.287Z" fill="#35252F"/>
<path d="M356.047 218.179L361.02 218.886L361.302 216.897L356.33 216.19L356.047 218.179Z" fill="#1B48CA"/>
<path d="M361.986 185.421L358.08 213.211C358.08 213.434 358.192 213.658 358.415 213.658C358.638 213.658 358.861 213.546 358.861 213.323L362.768 185.532C362.768 185.309 362.656 185.086 362.433 185.086C362.21 185.086 361.986 185.198 361.986 185.421Z" fill="#1B48CA"/>
<path d="M363.885 185.756L359.979 213.546C359.979 213.77 360.09 213.993 360.313 213.993C360.537 213.993 360.76 213.881 360.76 213.658L364.666 185.868C364.666 185.645 364.554 185.421 364.331 185.421C364.108 185.31 363.996 185.533 363.885 185.756Z" fill="#1B48CA"/>
<path d="M367.68 198.591L367.345 200.6L367.122 202.497L366.787 205.287L366.564 207.073L366.118 209.975L365.894 211.761L365.56 214.551L365.336 216.336L365.001 219.238L364.778 221.024L364.332 223.926L364.109 225.6L363.885 227.162H344.131L343.908 225.6L343.684 223.926L343.35 221.024L343.126 219.238L342.792 216.336L342.568 214.551L342.122 211.761L341.899 209.975L341.564 207.073L341.341 205.287L341.006 202.497L340.783 200.6L340.448 198.591H367.68Z" fill="#EF452F"/>
<path d="M367.344 200.6L367.121 202.497H341.005L340.782 200.6H367.344Z" fill="#AD2F24"/>
<path d="M366.787 205.288L366.564 207.074H341.564L341.34 205.288H366.787Z" fill="#AD2F24"/>
<path d="M366.117 209.974L365.894 211.759H342.121L341.898 209.974H366.117Z" fill="#AD2F24"/>
<path d="M365.558 214.551L365.335 216.336H342.79L342.567 214.551H365.558Z" fill="#AD2F24"/>
<path d="M365 219.238L364.777 221.024H343.348L343.125 219.238H365Z" fill="#AD2F24"/>
<path d="M364.33 223.925L364.107 225.599H343.906L343.683 223.925H364.33Z" fill="#AD2F24"/>
<path d="M145.488 67.7464C163.055 67.7464 177.296 53.5053 177.296 35.9381C177.296 18.3709 163.055 4.12988 145.488 4.12988C127.921 4.12988 113.68 18.3709 113.68 35.9381C113.68 53.5053 127.921 67.7464 145.488 67.7464Z" fill="#FFCDB3"/>
<path d="M145.488 63.6165C163.055 63.6165 177.296 49.3755 177.296 31.8083C177.296 14.241 163.055 0 145.488 0C127.921 0 113.68 14.241 113.68 31.8083C113.68 49.3755 127.921 63.6165 145.488 63.6165Z" fill="#EF452F"/>
<path d="M145.487 57.7011C159.773 57.7011 171.38 46.0939 171.38 31.8081C171.38 17.5223 159.773 5.91504 145.487 5.91504C131.201 5.91504 119.594 17.5223 119.594 31.8081C119.594 46.0939 131.201 57.7011 145.487 57.7011Z" fill="white"/>
<path d="M119.594 31.8081C119.594 32.4777 119.594 33.1474 119.706 33.817C120.71 20.5357 131.983 9.93292 145.487 9.93292C159.103 9.93292 170.264 20.4241 171.269 33.817C171.269 33.1474 171.38 32.4777 171.38 31.8081C171.38 17.5223 159.773 5.91504 145.487 5.91504C131.201 5.91504 119.594 17.5223 119.594 31.8081Z" fill="#FFDECB"/>
<path d="M145.488 34.4866C145.711 34.4866 145.934 34.375 146.046 34.2634L158.769 17.1874C158.992 16.8526 158.881 16.5177 158.657 16.2945C158.323 16.0713 157.988 16.1829 157.764 16.4061L145.376 33.1473L131.202 26.8973C130.867 26.7857 130.532 26.8973 130.309 27.2321C130.197 27.5669 130.309 27.9017 130.644 28.125L145.153 34.4866C145.264 34.4866 145.376 34.4866 145.488 34.4866Z" fill="#35252F"/>
<path d="M336.224 206.043L309.652 295.838C308.43 299.809 304.765 302.558 300.692 302.558L192.775 302.863C187.073 302.863 182.492 298.078 182.797 292.377C183.103 287.083 187.481 282.908 192.775 282.908H234.007L267.095 190.873H324.821C332.762 190.873 338.463 198.509 336.224 206.043Z" fill="#263238"/>
<path d="M269.437 290.747C255.886 290.747 244.901 290.565 244.901 290.34C244.901 290.115 255.886 289.933 269.437 289.933C282.988 289.933 293.973 290.115 293.973 290.34C293.973 290.565 282.988 290.747 269.437 290.747Z" fill="#263238"/>
<path d="M328.282 193.724C328.079 193.622 320.748 215.104 311.891 241.778C303.034 268.35 296.009 289.934 296.212 290.035C296.416 290.137 303.746 268.655 312.604 241.981C321.461 215.409 328.486 193.724 328.282 193.724Z" fill="#263238"/>
<path d="M249.381 382.376L255.999 382.172V302.558H249.381V382.376Z" fill="#263238"/>
<path d="M283.283 381.968H222.095L249.788 372.398H256.405L283.283 381.968Z" fill="#263238"/>
<path d="M298.759 170.205L288.68 220.804L290.513 258.779L222.402 247.478L225.05 214.289L225.151 186.8L208.455 219.175L195.423 194.029L219.246 150.963C223.624 146.484 228.715 143.124 234.823 140.884C237.776 139.764 240.932 139.154 244.597 139.052C252.436 141.495 260.275 141.495 268.217 139.052C269.133 139.154 270.456 139.255 272.187 139.459C272.289 139.459 272.391 139.459 272.493 139.459C286.949 141.19 297.945 153.203 298.759 167.762V170.205Z" fill="#2563EB"/>
<path d="M272.085 139.459C272.085 139.459 300.083 139.663 303.544 169.187L304.053 190.873L279.924 190.669L272.085 139.459Z" fill="#2563EB"/>
<path d="M205.196 177.435C205.196 177.638 227.187 177.842 254.37 177.842C281.553 177.842 303.544 177.638 303.544 177.435C303.544 177.231 281.553 177.027 254.37 177.027C227.187 177.027 205.196 177.231 205.196 177.435Z" fill="#FAFAFA"/>
<path d="M205.196 182.117C205.196 182.321 227.187 182.524 254.37 182.524C281.553 182.524 303.544 182.321 303.544 182.117C303.544 181.914 281.553 181.71 254.37 181.71C227.187 181.71 205.196 181.914 205.196 182.117Z" fill="#FAFAFA"/>
<path d="M206.825 173.565C206.825 173.769 228.511 173.973 255.185 173.973C281.859 173.973 303.544 173.769 303.544 173.565C303.544 173.362 281.859 173.158 255.185 173.158C228.409 173.158 206.825 173.362 206.825 173.565Z" fill="#FAFAFA"/>
<path d="M225.457 219.177C225.66 219.177 225.558 207.163 225.253 192.401C224.948 177.638 224.54 165.625 224.235 165.625C224.031 165.625 224.133 177.638 224.438 192.401C224.846 207.163 225.253 219.177 225.457 219.177Z" fill="#263238"/>
<path d="M235.027 199.73C235.027 199.73 221.791 200.647 219.45 204.21C217.108 207.672 213.443 217.649 214.767 217.751C216.192 217.852 217.108 217.038 217.108 217.038L220.773 210.624C220.773 210.624 220.162 216.834 222.402 216.936C224.54 217.038 235.332 219.176 235.332 219.176L235.027 199.73Z" fill="#FFBE9D"/>
<path d="M303.952 185.07V219.176C303.544 227.117 296.011 232.818 288.273 231.189L234.925 220.194L235.027 198.305L281.045 207.162L281.655 184.052L303.952 185.07Z" fill="#2563EB"/>
<path d="M273.51 228.441C273.51 228.441 273.306 228.339 272.797 228.238C272.288 228.136 271.576 227.932 270.761 227.729C268.929 227.321 266.282 226.812 262.922 226.1C256.101 224.674 246.531 222.74 235.128 220.398L235.433 220.704C235.433 213.883 235.433 206.247 235.433 198.204L235.026 198.611C238.081 199.222 241.237 199.833 244.393 200.444C257.831 202.989 270.456 205.432 281.044 207.469L281.451 207.57V207.163C281.146 196.982 280.84 188.532 280.637 182.525C280.535 179.573 280.433 177.333 280.331 175.704C280.331 174.991 280.229 174.381 280.229 173.872C280.229 173.464 280.128 173.261 280.128 173.261C280.128 173.261 280.128 173.464 280.128 173.872C280.128 174.381 280.128 174.89 280.128 175.704C280.128 177.333 280.229 179.675 280.229 182.627C280.331 188.634 280.535 197.084 280.84 207.265L281.248 206.96C270.659 204.923 258.035 202.48 244.596 199.833C241.338 199.222 238.182 198.611 235.23 198L234.823 197.899V198.306C234.823 206.349 234.823 213.883 234.823 220.806V221.111L235.128 221.213C246.531 223.453 256.101 225.285 262.922 226.609C266.282 227.22 268.929 227.729 270.761 228.034C271.678 228.136 272.288 228.339 272.899 228.441C273.306 228.441 273.51 228.441 273.51 228.441Z" fill="#263238"/>
<path d="M242.865 139.46C242.865 139.46 242.764 139.663 242.662 139.969C242.56 140.274 242.356 140.783 242.255 141.496C241.949 142.819 241.847 144.855 242.458 147.197C243.069 149.539 244.698 152.186 247.04 154.324C249.483 156.564 252.945 157.989 256.711 157.989C260.478 157.989 264.042 156.462 266.281 154.12C268.521 151.779 269.539 148.826 269.845 146.383C270.15 143.939 269.641 141.903 269.132 140.681C268.929 140.07 268.623 139.561 268.419 139.256C268.216 138.951 268.114 138.747 268.114 138.849C268.012 138.849 268.419 139.561 268.827 140.783C269.234 142.005 269.539 143.939 269.234 146.281C268.929 148.622 267.91 151.371 265.671 153.611C263.533 155.851 260.173 157.276 256.61 157.276C253.046 157.276 249.687 155.953 247.345 153.815C245.003 151.778 243.476 149.335 242.764 146.993C242.051 144.754 242.153 142.718 242.255 141.496C242.764 140.172 242.967 139.46 242.865 139.46Z" fill="#263238"/>
<path d="M240.32 221.925C240.421 221.925 240.421 220.602 240.32 218.566C240.218 216.529 240.116 213.679 240.116 210.523C240.116 207.367 240.116 204.516 240.218 202.48C240.32 200.444 240.32 199.12 240.218 199.12C240.116 199.12 239.912 200.342 239.709 202.48C239.505 204.516 239.403 207.468 239.403 210.625C239.403 213.781 239.607 216.631 239.811 218.769C240.014 220.704 240.218 222.027 240.32 221.925Z" fill="#FAFAFA"/>
<path d="M243.07 222.536C243.171 222.536 243.171 221.212 243.171 219.176C243.171 216.834 243.07 214.086 243.07 211.133C243.07 208.181 243.07 205.432 243.07 203.09C243.07 201.054 243.07 199.73 242.968 199.73C242.866 199.73 242.662 200.952 242.561 203.09C242.459 205.126 242.357 207.977 242.357 211.133C242.357 214.289 242.459 217.14 242.662 219.176C242.764 221.314 242.968 222.536 243.07 222.536Z" fill="#FAFAFA"/>
<path d="M189.619 358.044L179.54 385.838L165.185 405.487C164.167 406.912 164.574 408.949 165.999 409.865C166.814 410.374 167.832 410.476 168.748 410.068C174.551 407.625 195.727 398.768 196.338 396.731C197.051 394.288 210.693 364.458 210.693 364.458L189.619 358.044Z" fill="#64748B"/>
<g opacity="0.6">
<g opacity="0.6">
<path d="M166.101 409.865L197.153 394.899L196.746 396.019C196.338 397.037 195.626 397.852 194.709 398.361C192.164 399.684 185.038 403.35 169.054 410.069C168.035 410.476 166.916 410.374 166.101 409.865Z" fill="black"/>
</g>
</g>
<g opacity="0.6">
<g opacity="0.6">
<g opacity="0.6">
<path opacity="0.6" d="M195.015 383.802C194.099 384.006 193.488 384.922 193.692 385.839C193.895 386.755 194.811 387.366 195.728 387.162C196.644 386.958 197.357 385.839 197.153 385.024C196.848 384.21 195.728 383.497 194.913 383.904" fill="white"/>
</g>
</g>
</g>
<path d="M177.097 400.294C176.893 400.294 176.893 398.665 175.468 397.24C174.144 395.815 172.515 395.611 172.515 395.408C172.515 395.306 172.923 395.204 173.635 395.408C174.348 395.611 175.162 396.018 175.977 396.833C176.689 397.647 177.097 398.564 177.199 399.276C177.3 399.887 177.199 400.294 177.097 400.294Z" fill="#263238"/>
<path d="M173.636 403.247C173.432 403.349 172.923 402.025 171.702 401.109C170.48 400.091 169.156 399.887 169.156 399.684C169.156 399.48 170.683 399.48 172.109 400.6C173.534 401.618 173.84 403.145 173.636 403.247Z" fill="#263238"/>
<path d="M182.594 396.935C182.391 397.037 181.576 395.103 179.744 393.474C177.911 391.743 175.977 391.132 176.078 390.929C176.078 390.725 178.318 391.132 180.253 392.965C182.187 394.797 182.696 396.935 182.594 396.935Z" fill="#263238"/>
<path d="M186.361 388.791C186.259 388.893 184.935 387.671 183.001 386.856C181.067 385.94 179.336 385.838 179.336 385.736C179.336 385.533 181.169 385.431 183.307 386.347C185.343 387.162 186.463 388.689 186.361 388.791Z" fill="#263238"/>
<path d="M189.517 380.748C189.415 380.849 188.194 379.322 186.056 378.61C183.918 377.795 182.085 378.304 182.085 378.101C182.085 377.999 182.492 377.795 183.307 377.693C184.121 377.591 185.241 377.591 186.361 377.999C187.481 378.406 188.397 379.017 188.906 379.628C189.415 380.239 189.517 380.646 189.517 380.748Z" fill="#263238"/>
<path d="M186.666 377.083C186.666 377.083 186.666 376.676 187.074 376.065C187.379 375.454 187.99 374.538 189.008 373.621C189.517 373.214 190.026 372.705 190.942 372.603C191.35 372.603 191.961 372.909 192.164 373.316C192.368 373.825 192.266 374.334 192.164 374.741C191.452 376.472 189.314 377.592 187.277 377.083C185.241 376.574 183.918 374.741 183.714 372.909C183.714 372.501 183.714 371.891 184.121 371.585C184.528 371.178 185.139 371.178 185.547 371.483C186.361 371.891 186.666 372.603 186.972 373.112C187.583 374.232 187.888 375.25 187.99 375.963C188.092 376.676 188.092 377.083 188.092 377.083C187.99 377.083 187.888 375.454 186.565 373.316C186.259 372.807 185.852 372.196 185.241 371.891C184.936 371.789 184.63 371.789 184.529 371.992C184.325 372.196 184.223 372.501 184.325 372.909C184.528 374.436 185.75 376.065 187.481 376.472C189.212 376.879 191.146 375.963 191.655 374.538C191.757 374.232 191.859 373.825 191.757 373.52C191.655 373.214 191.452 373.112 191.146 373.112C190.535 373.112 189.924 373.52 189.415 373.927C187.277 375.556 186.768 377.185 186.666 377.083Z" fill="#263238"/>
<path d="M147.062 350.815L147.978 373.416C147.978 373.416 125.377 381.866 125.071 386.041L168.849 385.939L168.951 350.713L147.062 350.815Z" fill="#64748B"/>
<g opacity="0.6">
<g opacity="0.6">
<path opacity="0.6" d="M161.519 371.482C162.333 371.686 162.944 372.704 162.74 373.518C162.537 374.333 161.62 374.944 160.704 374.74C159.89 374.537 159.075 373.417 159.381 372.602C159.686 371.788 160.806 371.075 161.62 371.584" fill="white"/>
</g>
</g>
<g opacity="0.6">
<path d="M168.85 385.939V382.478L126.701 383.903C126.701 383.903 124.766 384.717 124.97 386.143L168.85 385.939Z" fill="black"/>
</g>
<path d="M147.266 373.212C147.266 373.416 148.386 373.518 149.404 374.23C150.524 374.841 151.033 375.859 151.236 375.758C151.44 375.758 151.135 374.434 149.811 373.62C148.488 372.703 147.164 373.009 147.266 373.212Z" fill="#263238"/>
<path d="M142.684 375.045C142.684 375.249 143.6 375.656 144.313 376.47C145.025 377.387 145.229 378.303 145.433 378.303C145.636 378.303 145.738 377.081 144.822 375.961C143.905 374.943 142.684 374.842 142.684 375.045Z" fill="#263238"/>
<path d="M140.037 380.542C140.24 380.542 140.546 379.524 139.935 378.302C139.426 377.081 138.408 376.674 138.306 376.877C138.204 377.081 138.815 377.692 139.324 378.608C139.731 379.626 139.833 380.542 140.037 380.542Z" fill="#263238"/>
<path d="M147.571 368.02C147.673 368.224 148.691 367.919 149.811 368.02C151.032 368.122 151.949 368.428 152.05 368.326C152.152 368.122 151.236 367.409 149.811 367.308C148.487 367.104 147.469 367.817 147.571 368.02Z" fill="#263238"/>
<g opacity="0.3">
<path opacity="0.3" d="M147.266 355.294L147.368 359.264L168.952 359.061V355.396L147.266 355.294Z" fill="black"/>
</g>
<path d="M147.47 363.439C147.47 363.541 148.284 363.643 149.709 363.439C150.422 363.337 151.135 363.134 152.051 362.727C152.458 362.523 152.865 362.319 153.273 362.014C153.476 361.912 153.68 361.709 153.884 361.505C154.087 361.301 154.291 360.69 153.985 360.385C153.782 360.08 153.374 359.876 153.069 359.876C152.764 359.876 152.458 359.978 152.255 359.978C151.746 360.08 151.338 360.283 150.931 360.487C150.117 360.894 149.404 361.403 148.895 361.81C147.877 362.727 147.571 363.541 147.571 363.643C147.673 363.745 148.182 363.032 149.2 362.218C149.709 361.81 150.422 361.403 151.135 361.098C151.542 360.894 151.949 360.792 152.356 360.69C152.865 360.589 153.171 360.589 153.375 360.792C153.375 360.894 153.375 360.894 153.375 360.996C153.273 361.098 153.069 361.199 152.865 361.403C152.458 361.607 152.051 361.912 151.746 362.116C151.033 362.523 150.218 362.727 149.608 362.93C148.386 363.236 147.47 363.337 147.47 363.439Z" fill="#263238"/>
<path d="M147.775 363.745C147.877 363.745 148.284 363.032 148.386 361.607C148.386 360.894 148.386 360.079 148.08 359.163C147.978 358.756 147.775 358.247 147.469 357.84C147.164 357.432 146.859 356.822 146.044 356.72C145.637 356.72 145.23 357.025 145.128 357.331C145.026 357.636 144.924 357.84 144.924 358.145C144.822 358.654 144.822 359.163 144.924 359.672C145.026 360.588 145.433 361.403 145.841 361.912C146.655 363.032 147.571 363.337 147.571 363.236C147.673 363.134 146.859 362.726 146.248 361.607C145.942 361.098 145.637 360.385 145.535 359.57C145.535 359.163 145.535 358.756 145.535 358.349C145.637 357.84 145.739 357.534 145.942 357.534C146.146 357.534 146.553 357.84 146.757 358.247C146.96 358.654 147.164 359.061 147.266 359.469C147.571 360.283 147.673 360.996 147.673 361.607C147.877 362.93 147.673 363.745 147.775 363.745Z" fill="#263238"/>
<path d="M168.951 242.592C194.811 245.239 229.121 248.802 229.121 248.802L224.437 290.951C224.437 290.951 174.042 277.614 174.347 278.734C174.755 279.854 172.006 368.428 172.006 368.428H141.667L141.056 268.146C140.954 252.977 153.884 241.065 168.951 242.592Z" fill="#1E1E1E"/>
<path d="M291.123 259.594V272.625C291.123 281.483 280.942 290.951 272.084 290.951H265.161C259.765 290.951 251.213 286.98 246.836 283.824L244.189 281.89L212.526 379.83C212.526 379.83 176.384 373.315 176.384 372.195C176.384 371.075 200.92 291.969 212.221 255.216C216.802 240.25 232.888 231.494 247.752 236.585C248.261 236.789 248.77 236.992 249.279 237.196C265.467 243.813 291.123 259.594 291.123 259.594Z" fill="#1E1E1E"/>
<path d="M176.486 372.297C176.486 372.297 176.587 372.195 176.689 371.992C176.791 371.686 176.893 371.381 177.096 370.973C177.402 370.057 177.911 368.734 178.522 366.901C179.743 363.338 181.372 358.247 183.409 351.833C187.481 339.107 192.877 321.392 198.782 301.845C201.734 292.071 204.483 282.705 207.028 274.255C208.25 269.979 209.472 266.008 210.592 262.241C211.202 260.307 211.711 258.576 212.221 256.744C212.73 255.013 213.239 253.282 213.849 251.755C215.071 248.701 217.006 246.359 218.94 244.527C220.874 242.694 222.707 241.37 224.336 240.352C225.863 239.334 227.085 238.52 228.001 238.011C228.408 237.807 228.714 237.604 228.917 237.4C229.121 237.298 229.223 237.196 229.223 237.196C229.223 237.196 229.121 237.196 228.917 237.4C228.612 237.502 228.306 237.705 227.899 237.909C226.983 238.418 225.761 239.131 224.234 240.149C222.605 241.167 220.773 242.49 218.736 244.221C216.802 246.054 214.766 248.395 213.442 251.551C212.73 253.079 212.221 254.809 211.711 256.54C211.202 258.271 210.592 260.103 210.083 261.936C208.963 265.703 207.741 269.775 206.417 273.949C203.872 282.4 201.022 291.766 198.069 301.54C192.164 321.087 186.87 338.7 183.001 351.63C181.067 357.942 179.438 363.134 178.318 366.799C177.809 368.53 177.3 369.955 176.995 370.872C176.893 371.279 176.791 371.686 176.689 371.992C176.486 372.093 176.486 372.297 176.486 372.297Z" fill="#455A64"/>
<path d="M168.85 266.109C168.646 266.211 170.377 268.858 171.802 272.32C173.228 275.781 173.838 278.836 174.144 278.836C174.347 278.836 174.042 275.68 172.515 272.014C170.988 268.349 168.952 265.906 168.85 266.109Z" fill="#455A64"/>
<path d="M163.047 270.182C162.945 270.385 165.592 271.505 168.239 273.643C170.988 275.781 172.719 278.021 172.922 277.919C173.126 277.817 171.599 275.272 168.748 273.032C165.898 270.792 163.047 269.978 163.047 270.182Z" fill="#455A64"/>
<path d="M212.323 379.932C212.526 380.034 221.078 353.767 231.361 321.392C241.746 289.016 249.89 262.648 249.687 262.648C249.483 262.546 240.931 288.813 230.648 321.188C220.366 353.563 212.119 379.83 212.323 379.932Z" fill="#455A64"/>
<path d="M251.111 227.117L147.571 228.135L128.33 173.565L203.566 174.074L221.078 223.146L251.111 223.554V227.117Z" fill="#1E1E1E"/>
<path d="M172.006 205.534C169.701 205.534 167.832 203.665 167.832 201.36C167.832 199.054 169.701 197.186 172.006 197.186C174.312 197.186 176.181 199.054 176.181 201.36C176.181 203.665 174.312 205.534 172.006 205.534Z" fill="white"/>
<path d="M259.56 79.494C258.542 75.8289 255.895 74.0981 252.332 72.8764C248.769 71.6547 244.594 72.3674 241.642 74.6072C239.606 76.1343 238.079 78.3741 235.737 79.1886C231.868 80.5121 227.287 77.6614 223.52 79.3922C221.28 80.4103 220.058 83.1591 220.568 85.5007C221.178 87.8423 223.52 89.6749 225.963 89.5731C223.418 90.4894 222.604 94.1545 224.131 96.3943C225.658 98.6341 228.712 99.5504 231.359 99.0413C234.006 98.5323 236.348 96.9033 238.384 95.0708C240.42 93.2382 242.253 91.202 244.391 89.5731C246.529 87.9441 249.176 86.7224 251.925 86.8242C255.59 87.0279 258.746 89.7767 260.375 93.0346C262.004 96.2925 262.411 100.059 262.615 103.725C262.818 107.39 262.92 111.157 263.938 114.618C264.04 115.025 264.244 115.534 264.651 115.636C265.262 115.84 265.771 115.229 266.076 114.618C269.436 108.408 271.574 101.587 272.287 94.5617C272.694 90.4894 272.592 86.6206 270.352 83.2609C268.011 79.7994 262.309 77.2542 259.56 79.494Z" fill="#1E1E1E"/>
<path d="M266.687 96.4962L268.519 137.729C268.825 144.754 267.908 155.138 256.811 155.138C247.139 154.426 244.289 145.365 244.085 138.849C243.983 135.795 243.78 133.147 243.78 132.842C243.78 132.842 233.293 132.333 231.97 121.948C231.359 116.96 230.952 106.575 230.748 97.1071C230.443 87.028 238.078 78.3742 248.056 77.3561L249.074 77.2543C259.967 76.7453 266.381 85.6026 266.687 96.4962Z" fill="#FFAA8C"/>
<path d="M243.677 132.639C243.677 132.639 250.295 132.435 256.811 127.345C256.811 127.345 254.367 135.184 243.983 135.286L243.677 132.639Z" fill="#EB996E"/>
<path d="M234.513 103.724C234.615 104.538 235.328 105.149 236.142 105.047C236.957 105.047 237.567 104.335 237.567 103.52C237.466 102.706 236.753 102.095 235.938 102.197C235.022 102.298 234.411 102.909 234.513 103.724Z" fill="#263238"/>
<path d="M233.495 101.993C233.699 102.197 234.717 101.179 236.346 101.077C237.975 100.873 239.196 101.586 239.298 101.382C239.4 101.28 239.196 100.975 238.586 100.67C238.077 100.364 237.16 100.059 236.142 100.161C235.124 100.262 234.31 100.771 233.902 101.179C233.495 101.484 233.393 101.891 233.495 101.993Z" fill="#263238"/>
<path d="M250.192 102.604C250.294 103.418 251.007 104.029 251.821 103.927C252.636 103.927 253.247 103.215 253.247 102.4C253.145 101.586 252.432 100.975 251.618 101.077C250.701 101.178 250.091 101.789 250.192 102.604Z" fill="#263238"/>
<path d="M249.175 100.568C249.378 100.772 250.397 99.7539 252.025 99.6521C253.654 99.4484 254.876 100.161 254.978 99.9575C255.08 99.8557 254.876 99.5503 254.265 99.2448C253.756 98.9394 252.84 98.634 251.822 98.7358C250.804 98.8376 249.989 99.3466 249.582 99.7539C249.175 100.161 249.073 100.467 249.175 100.568Z" fill="#263238"/>
<path d="M244.695 112.988C244.695 112.887 243.677 112.785 242.048 112.785C241.641 112.785 241.233 112.785 241.132 112.479C241.03 112.174 241.131 111.767 241.233 111.258C241.539 110.24 241.844 109.12 242.15 108C243.371 103.418 244.186 99.6514 243.982 99.6514C243.779 99.6514 242.659 103.316 241.437 107.898C241.132 109.018 240.826 110.138 240.622 111.156C240.521 111.665 240.317 112.174 240.622 112.785C240.724 113.09 241.132 113.294 241.335 113.294C241.641 113.396 241.844 113.294 242.048 113.294C243.677 113.192 244.695 113.09 244.695 112.988Z" fill="#263238"/>
<path d="M249.48 113.6C249.175 113.6 249.378 115.33 248.055 116.756C246.731 118.181 244.797 118.181 244.899 118.385C244.899 118.486 245.306 118.69 246.12 118.588C246.935 118.486 247.953 118.181 248.767 117.367C249.582 116.552 249.887 115.432 249.887 114.72C249.785 114.007 249.582 113.6 249.48 113.6Z" fill="#263238"/>
<path d="M248.055 94.3579C248.259 94.7652 249.786 94.3579 251.721 94.4597C253.655 94.4597 255.182 94.867 255.386 94.4597C255.488 94.2561 255.182 93.8489 254.469 93.5435C253.859 93.238 252.84 92.9326 251.721 92.9326C250.601 92.9326 249.583 93.238 248.972 93.5435C248.361 93.8489 248.055 94.1543 248.055 94.3579Z" fill="#263238"/>
<path d="M233.598 97.3105C233.904 97.6159 235.024 97.1068 236.245 97.005C237.569 96.8014 238.689 97.005 238.893 96.5978C238.994 96.3942 238.791 96.0888 238.282 95.7833C237.773 95.4779 236.958 95.2743 236.042 95.3761C235.126 95.4779 234.413 95.8851 234.006 96.2924C233.598 96.6996 233.497 97.1068 233.598 97.3105Z" fill="#263238"/>
<path d="M266.585 104.234C266.789 104.132 273.508 101.383 274.017 108.51C274.526 115.637 267.298 114.72 267.298 114.517C267.298 114.211 266.585 104.234 266.585 104.234Z" fill="#FFBE9D"/>
<path d="M269.232 111.564C269.232 111.564 269.334 111.666 269.538 111.768C269.741 111.87 270.148 111.87 270.454 111.768C271.167 111.463 271.777 110.241 271.676 108.917C271.676 108.306 271.472 107.696 271.167 107.187C270.861 106.678 270.556 106.372 270.148 106.27C269.741 106.168 269.538 106.474 269.436 106.678C269.334 106.881 269.436 106.983 269.334 107.085C269.334 107.085 269.13 106.983 269.232 106.678C269.232 106.576 269.334 106.372 269.436 106.168C269.639 106.067 269.843 105.965 270.148 105.965C270.658 105.965 271.268 106.474 271.574 106.983C271.879 107.492 272.083 108.205 272.185 108.917C272.286 110.343 271.574 111.768 270.658 112.073C270.148 112.277 269.741 112.073 269.538 111.972C269.334 111.768 269.232 111.666 269.232 111.564Z" fill="#EB996E"/>
<path d="M228.305 95.1729C232.988 95.8856 237.977 94.1549 241.235 90.7952C243.576 88.3517 245.103 85.0938 248.158 83.7703C250.194 82.854 252.637 83.0577 254.674 83.9739C256.71 84.8902 258.44 86.3155 260.069 87.9445C258.644 93.4422 260.578 99.1435 262.513 104.438C262.716 105.048 263.022 105.659 263.531 105.965C264.447 106.474 265.669 105.863 266.28 105.048C267.298 103.725 267.603 101.892 267.705 100.263C268.011 96.3947 267.705 92.4241 266.382 88.759C265.16 85.0938 262.92 81.7341 259.866 79.2907C255.997 76.3383 251.008 75.1166 246.122 75.7274C241.235 76.3383 236.755 78.5781 233.294 81.9378C231.665 83.4649 230.138 85.2975 229.527 87.4355" fill="#1E1E1E"/>
<path d="M369.313 325.942C365.647 324.11 361.371 323.804 357.401 324.517C355.263 324.924 353.023 325.535 351.496 327.164C350.071 328.793 349.765 331.644 351.394 333.069C352.412 333.883 353.838 333.985 355.161 333.985C358.317 333.985 361.779 333.374 364.324 335.309C365.749 336.429 366.767 338.159 368.396 338.77C370.127 339.279 371.96 338.261 372.876 336.734C373.792 335.207 373.792 333.272 373.385 331.644C373.487 331.542 372.978 327.775 369.313 325.942Z" fill="#3A974C"/>
<path d="M377.66 309.856C375.42 313.012 371.144 311.994 369.108 310.059C367.072 308.125 366.258 305.274 365.443 302.627C363.712 296.519 361.88 290.105 363.203 283.894C363.611 282.062 364.323 280.229 365.647 278.804C366.97 277.379 369.006 276.564 370.839 277.073C372.977 277.684 374.402 279.822 375.319 281.756C378.169 287.763 379.696 294.279 379.696 300.897C379.798 304.053 379.391 307.311 377.66 309.856Z" fill="#3A974C"/>
<path d="M383.768 314.437C381.325 311.586 380.918 307.412 381.936 303.849C383.056 300.286 385.397 297.231 388.248 294.686C391.506 291.734 395.375 289.494 399.549 288.069C401.178 287.458 402.909 287.051 404.639 287.254C406.37 287.458 408.101 288.272 408.915 289.799C410.137 292.039 408.915 294.788 407.694 297.028C405.556 300.998 403.01 304.765 400.262 308.329C398.022 311.179 395.477 314.03 392.117 315.252C388.757 316.575 385.194 316.372 383.463 314.03" fill="#3A974C"/>
<path d="M377.864 357.706C377.864 357.706 377.762 357.197 377.66 356.281C377.558 355.263 377.457 353.939 377.253 352.31C377.049 350.681 376.846 348.645 376.337 346.507C375.929 344.369 375.115 342.028 374.199 339.686C373.282 337.344 372.061 335.206 370.737 333.578C369.414 331.847 367.785 330.625 366.359 329.912C364.934 329.2 363.61 328.894 362.694 328.792C361.778 328.691 361.269 328.589 361.269 328.589C361.269 328.589 361.778 328.589 362.694 328.589C363.61 328.691 365.036 328.894 366.563 329.607C368.09 330.32 369.821 331.541 371.246 333.272C372.672 335.003 373.893 337.141 374.809 339.584C375.726 341.926 376.438 344.267 376.846 346.507C377.253 348.645 377.457 350.681 377.66 352.31C377.762 353.939 377.864 355.365 377.864 356.281C377.864 357.197 377.864 357.706 377.864 357.706Z" fill="#263238"/>
<path d="M377.558 354.651C377.558 354.651 377.558 354.448 377.558 353.939C377.558 353.43 377.558 352.819 377.558 352.004C377.558 350.375 377.558 347.932 377.457 344.98C377.355 339.075 376.846 332.661 375.828 323.701C374.911 315.251 373.69 305.376 372.366 298.962C372.061 297.537 371.755 296.213 371.552 295.093C371.246 293.973 371.043 292.955 370.839 292.141C370.635 291.428 370.534 290.817 370.432 290.308C370.33 289.901 370.33 289.697 370.33 289.697C370.33 289.697 370.432 289.901 370.534 290.308C370.635 290.817 370.839 291.428 371.043 292.141C371.246 292.955 371.552 293.871 371.857 295.093C372.162 296.213 372.468 297.537 372.773 298.962C374.097 304.765 375.42 312.91 376.438 321.869C377.457 330.93 377.864 339.075 377.864 345.081C377.864 348.034 377.864 350.477 377.762 352.106C377.762 352.921 377.66 353.532 377.66 354.041C377.558 354.448 377.558 354.651 377.558 354.651Z" fill="#263238"/>
<path d="M377.558 338.77C377.558 338.77 377.558 338.057 377.558 336.733C377.66 335.41 377.762 333.577 378.169 331.338C378.576 329.098 379.085 326.349 379.9 323.498C380.307 322.175 381.121 318.917 383.157 314.132C385.906 307.616 389.571 302.322 392.829 299.064C393.542 298.148 394.458 297.537 395.069 296.926C395.375 296.621 395.68 296.315 396.087 296.112C396.393 295.908 396.698 295.704 397.003 295.501C398.022 294.788 398.632 294.381 398.734 294.381C398.836 294.483 396.393 296.01 393.237 299.268C390.08 302.627 386.517 307.82 383.768 314.234C382.241 317.695 381.223 320.851 380.409 323.498C379.594 326.349 378.983 329.098 378.576 331.338C378.169 333.577 377.965 335.41 377.762 336.733C377.66 338.159 377.558 338.77 377.558 338.77Z" fill="#263238"/>
<path d="M392.83 366.767L391.201 388.452H363.305L361.677 366.767H392.83Z" fill="#263238"/>
<path d="M358.316 358.215H395.476V366.767H358.316V358.215Z" fill="#263238"/>
<path d="M391.496 392.544L393.132 388.472H361.571L363.399 392.544H391.496Z" fill="#263238"/>
<path d="M362.287 373.792C362.287 373.792 362.287 373.894 362.389 373.995C362.49 374.097 362.592 374.301 362.796 374.504C363.203 375.014 363.712 375.726 364.425 376.541L364.527 376.642C365.545 375.217 366.868 373.385 368.497 371.145H368.294C369.515 372.876 370.839 374.708 372.264 376.744L372.366 376.948L372.468 376.744C373.893 375.014 375.522 373.181 377.151 371.145H376.846C376.947 371.247 377.049 371.348 377.151 371.45C378.576 373.283 380.002 375.014 381.325 376.642L381.427 376.846L381.529 376.642C382.954 374.606 384.278 372.774 385.499 371.043H385.296C387.23 373.283 388.859 375.115 390.183 376.541L390.284 376.642L390.386 376.541C390.997 375.421 391.506 374.606 391.913 373.995C392.117 373.69 392.219 373.486 392.321 373.283C392.422 373.079 392.422 373.079 392.422 373.079C392.422 373.079 392.321 373.181 392.219 373.283C392.117 373.486 391.913 373.69 391.812 373.894C391.404 374.504 390.895 375.319 390.183 376.439H390.284C389.063 375.014 387.434 373.079 385.499 370.839L385.398 370.738L385.296 370.839C384.074 372.57 382.751 374.403 381.325 376.337H381.631C380.307 374.708 378.882 372.876 377.456 371.145C377.355 371.043 377.253 370.941 377.151 370.839L377.049 370.636L376.947 370.839C375.318 372.774 373.791 374.708 372.264 376.439H372.57C371.144 374.403 369.821 372.57 368.599 370.941L368.497 370.738L368.395 370.941C366.868 373.181 365.443 375.115 364.527 376.541H364.628C363.916 375.726 363.305 375.014 362.898 374.504C362.694 374.301 362.592 374.097 362.49 373.995C362.287 373.894 362.287 373.792 362.287 373.792Z" fill="#1E1E1E"/>
<path d="M376.948 366.767C368.345 366.767 361.371 366.675 361.371 366.563C361.371 366.451 368.345 366.359 376.948 366.359C385.55 366.359 392.524 366.451 392.524 366.563C392.524 366.675 385.55 366.767 376.948 366.767Z" fill="#455A64"/>
<path d="M88.0137 128.363L107.357 209.403H101.962L82.8214 128.363H88.0137Z" fill="#263238"/>
<path d="M95.4462 181.711C95.7517 183.238 86.5888 227.423 86.5888 227.423H90.9666L97.8896 192.401L95.4462 181.711Z" fill="#263238"/>
<path d="M30.8982 285.861H121.712V382.173H30.8982V285.861Z" fill="#1E1E1E"/>
<path d="M26.3168 299.911H30.7964V304.391H26.3168V299.911Z" fill="#263238"/>
<path d="M26.3168 314.062H30.7964V318.542H26.3168V314.062Z" fill="#263238"/>
<path d="M26.3168 328.315H30.7964V332.795H26.3168V328.315Z" fill="#263238"/>
<path d="M26.3168 342.467H30.7964V346.946H26.3168V342.467Z" fill="#263238"/>
<path d="M26.2151 329.537C26.2151 329.537 25.706 329.435 24.8916 329.231C23.9753 329.13 22.7536 328.824 21.0228 328.824C19.3939 328.824 17.3577 329.13 15.5251 330.25C14.6089 330.86 13.6926 331.675 13.1835 332.795C12.5727 333.915 12.3691 335.136 12.4709 336.46C12.5727 337.682 12.9799 338.903 13.5907 339.921C14.2016 340.939 15.0161 341.754 15.9324 342.365C17.6631 343.688 19.5975 344.197 21.2264 344.503C22.8554 344.706 24.1789 344.706 25.0952 344.605C26.0115 344.503 26.5205 344.401 26.5205 344.401C26.5205 344.401 26.0115 344.401 25.0952 344.401C24.1789 344.401 22.8554 344.401 21.3282 344.096C19.8011 343.79 17.9685 343.179 16.2378 341.958C14.6088 340.736 13.0817 338.7 12.9799 336.358C12.8781 335.136 13.0817 334.016 13.5907 332.998C14.0998 331.98 14.9143 331.268 15.7287 330.657C17.4595 329.537 19.3939 329.231 21.0228 329.13C22.6518 329.13 23.8735 329.231 24.7897 329.333C25.706 329.537 26.2151 329.639 26.2151 329.537Z" fill="#263238"/>
<path d="M27.335 315.488C27.335 315.488 27.2332 315.386 26.9277 315.183C26.6223 315.081 26.2151 314.877 25.6042 314.674C24.3825 314.266 22.5499 313.961 20.412 314.368C19.9029 314.47 19.2921 314.674 18.783 314.979C18.274 315.284 17.7649 315.895 17.5613 316.608C17.1541 317.931 17.6631 319.459 18.5794 320.68C19.0885 321.291 19.6993 321.8 20.412 322.106C21.1246 322.411 22.1427 322.411 22.8554 322.004C23.568 321.597 24.2807 320.782 24.2807 319.866C24.2807 318.949 23.6698 318.033 22.8554 317.626C22.0409 317.219 21.1246 317.219 20.2083 317.321C19.3939 317.524 18.5794 317.931 17.9685 318.44C16.645 319.459 15.8305 320.986 15.7287 322.513C15.5251 324.04 16.136 325.465 16.8486 326.585C17.6631 327.705 18.6812 328.418 19.5975 328.927C21.6337 329.945 23.4662 330.148 24.6879 330.25C25.2988 330.25 25.8078 330.352 26.1133 330.352C26.4187 330.352 26.6223 330.352 26.6223 330.352C26.6223 330.352 25.9097 330.25 24.6879 330.148C23.4662 329.945 21.7355 329.741 19.8011 328.723C18.8848 328.214 17.8667 327.501 17.1541 326.483C16.4414 325.465 15.9323 324.142 16.136 322.716C16.3396 321.291 17.0523 319.968 18.274 319.051C18.8848 318.542 19.5975 318.237 20.3101 318.033C21.0228 317.83 21.8373 317.931 22.55 318.237C23.2626 318.542 23.6699 319.255 23.6699 319.968C23.6699 320.68 23.1608 321.291 22.55 321.698C21.9391 322.106 21.1246 322.106 20.5138 321.8C19.8011 321.597 19.2921 321.087 18.8848 320.578C17.9685 319.56 17.5613 318.135 17.8667 316.913C18.1722 315.692 19.2921 315.081 20.412 314.877C22.5499 314.368 24.2807 314.674 25.5024 314.979C26.7241 315.183 27.335 315.59 27.335 315.488Z" fill="#263238"/>
<path d="M27.2334 301.641C27.2334 301.641 26.928 301.539 26.2153 301.438C25.6045 301.438 24.5864 301.437 23.4665 301.845C22.3466 302.252 21.1249 302.965 20.1068 304.085C19.0887 305.306 18.376 306.935 18.376 308.768C18.2742 310.6 18.885 312.331 19.8013 313.553C20.7176 314.774 21.9393 315.589 23.0592 315.996C24.1791 316.403 25.0954 316.505 25.7063 316.505C26.3171 316.505 26.7244 316.403 26.7244 316.403C26.7244 316.302 25.1972 316.607 23.161 315.589C22.1429 315.08 21.023 314.367 20.2085 313.146C19.2923 311.924 18.7832 310.397 18.885 308.666C18.9869 306.935 19.5977 305.408 20.514 304.288C21.4303 303.168 22.652 302.456 23.6701 302.048C25.8081 301.437 27.2334 301.743 27.2334 301.641Z" fill="#263238"/>
<path d="M94.7324 234.753C94.7324 234.753 94.3252 235.364 93.918 236.585C93.5107 237.807 93.1035 239.64 92.6962 242.083C92.289 244.527 91.9836 247.479 91.6781 250.839C91.3727 254.3 91.0673 258.169 90.5582 262.547C90.4564 263.667 90.2528 264.685 90.0492 265.805C89.8456 266.925 89.5402 268.044 89.0311 269.063C88.5221 270.081 87.7076 270.997 86.7913 271.811C85.875 272.626 84.9587 273.44 83.8388 274.051C81.7008 275.375 79.1556 276.291 76.5086 276.596C73.8616 276.902 71.0109 276.495 68.4657 275.171C65.9205 273.949 63.8843 271.506 63.2734 268.655C62.968 267.23 63.0698 265.703 63.5788 264.278C64.0879 262.852 65.106 261.732 66.4295 260.918C67.6512 260.103 69.1783 259.594 70.7055 259.493C72.2326 259.391 73.8616 259.798 75.0833 260.816C75.6941 261.325 76.2032 261.834 76.5086 262.547C76.814 263.259 76.9158 263.972 76.814 264.787C76.5086 266.314 75.3887 267.637 73.9634 268.35C72.538 269.164 70.9091 269.47 69.2802 269.673C67.6512 269.877 66.0223 269.979 64.4951 269.979C61.2372 270.081 58.0812 269.775 55.0269 269.47C48.8165 268.757 42.8098 267.739 37.1085 267.739C31.4072 267.637 25.8077 268.452 21.1245 270.793C18.7829 271.913 16.7467 273.44 15.2195 275.273C13.5906 277.105 12.5725 279.243 12.1653 281.381C11.249 285.759 12.2671 289.832 13.896 292.886C15.6268 295.94 17.9684 297.976 19.9028 299.3C21.9389 300.623 23.6697 301.438 24.8914 301.845C26.1131 302.252 26.724 302.456 26.724 302.456C26.724 302.456 26.5204 302.354 26.2149 302.252C25.9095 302.151 25.4004 301.947 24.8914 301.743C23.6697 301.234 21.9389 300.522 20.0046 299.096C18.0702 297.671 15.7286 295.635 14.0996 292.682C12.4707 289.73 11.5544 285.657 12.4707 281.483C12.9798 279.447 13.896 277.309 15.525 275.578C17.0521 273.848 19.0883 272.32 21.3281 271.302C25.9095 269.063 31.4072 268.248 37.1085 268.35C42.8098 268.452 48.8165 269.47 55.0269 270.081C58.183 270.386 61.339 270.692 64.5969 270.59C66.2259 270.59 67.8548 270.488 69.4838 270.284C71.1127 270.081 72.8435 269.775 74.2688 268.961C75.7959 268.146 77.0176 266.721 77.3231 264.99C77.5267 264.176 77.3231 263.259 77.0176 262.445C76.6104 261.631 76.1014 261.02 75.3887 260.511C74.0652 259.493 72.3344 259.085 70.7055 259.085C69.0765 259.187 67.4476 259.696 66.1241 260.612C64.8005 261.529 63.6806 262.75 63.0698 264.278C62.4589 265.805 62.459 267.434 62.7644 268.859C63.477 271.913 65.615 274.357 68.2621 275.68C70.9091 277.004 73.8616 277.411 76.5086 277.105C79.2574 276.8 81.8027 275.884 84.0425 274.56C85.1624 273.848 86.1805 273.135 86.9949 272.219C87.9112 271.302 88.7257 270.488 89.3366 269.368C89.8456 268.248 90.151 267.128 90.3546 266.008C90.5583 264.888 90.7619 263.769 90.8637 262.75C91.3727 258.474 91.6781 254.504 91.9836 251.042C92.289 247.581 92.5944 244.628 92.8999 242.287C93.2053 239.843 93.6125 238.011 94.0197 236.789C94.2234 236.178 94.3252 235.669 94.5288 235.466C94.6306 234.855 94.7324 234.753 94.7324 234.753Z" fill="#263238"/>
<path d="M35.989 378.1C35.989 378.1 35.989 377.998 35.989 377.693C35.989 377.387 35.989 376.98 35.989 376.471C35.989 375.351 35.989 373.824 35.989 371.686C35.989 367.512 35.989 361.403 36.0908 353.666C36.0908 338.191 36.1926 316.098 36.1926 289.628L35.989 289.831C60.0159 289.831 88.1152 289.831 118.149 289.831L117.843 289.526C117.843 322.105 117.843 352.444 117.843 377.998L118.047 377.794C93.4093 377.794 72.9457 377.896 58.5906 377.896C51.3622 377.896 45.7627 377.896 41.8939 377.998C39.9595 377.998 38.5342 377.998 37.5161 377.998C36.498 378.1 35.989 378.1 35.989 378.1C35.989 378.1 36.498 378.1 37.5161 378.1C38.5342 378.1 39.9595 378.1 41.8939 378.1C45.7627 378.1 51.3622 378.1 58.4888 378.202C72.8439 378.202 93.4093 378.303 118.149 378.303H118.353V378.1C118.353 352.546 118.353 322.105 118.353 289.628V289.322H118.047C88.1152 289.322 60.0159 289.322 35.8872 289.322H35.6836V289.526C35.6836 315.996 35.7854 338.191 35.7854 353.666C35.7854 361.403 35.7854 367.512 35.8872 371.686C35.8872 373.722 35.8872 375.351 35.8872 376.369C35.8872 376.878 35.8872 377.285 35.8872 377.591C35.989 377.998 35.989 378.1 35.989 378.1Z" fill="#263238"/>
<path d="M59.5063 300.93C59.2814 300.93 59.0991 300.747 59.0991 300.522C59.0991 300.298 59.2814 300.115 59.5063 300.115C59.7313 300.115 59.9136 300.298 59.9136 300.522C59.9136 300.747 59.7313 300.93 59.5063 300.93Z" fill="#263238"/>
<path d="M57.2671 300.929C57.0422 300.929 56.8598 300.746 56.8598 300.521C56.8598 300.297 57.0422 300.114 57.2671 300.114C57.492 300.114 57.6743 300.297 57.6743 300.521C57.6743 300.746 57.492 300.929 57.2671 300.929Z" fill="#263238"/>
<path d="M54.9253 300.929C54.7004 300.929 54.5181 300.746 54.5181 300.521C54.5181 300.297 54.7004 300.114 54.9253 300.114C55.1502 300.114 55.3325 300.297 55.3325 300.521C55.3325 300.746 55.1502 300.929 54.9253 300.929Z" fill="#263238"/>
<path d="M52.5195 300.99C52.2946 300.99 52.1123 300.808 52.1123 300.583C52.1123 300.358 52.2946 300.176 52.5195 300.176C52.7444 300.176 52.9268 300.358 52.9268 300.583C52.9268 300.808 52.7444 300.99 52.5195 300.99Z" fill="#263238"/>
<path d="M50.1787 300.99C49.9538 300.99 49.7714 300.808 49.7714 300.583C49.7714 300.358 49.9538 300.176 50.1787 300.176C50.4036 300.176 50.5859 300.358 50.5859 300.583C50.5859 300.808 50.4036 300.99 50.1787 300.99Z" fill="#263238"/>
<path d="M47.9004 300.929C47.6755 300.929 47.4932 300.746 47.4932 300.521C47.4932 300.297 47.6755 300.114 47.9004 300.114C48.1253 300.114 48.3076 300.297 48.3076 300.521C48.3076 300.746 48.1253 300.929 47.9004 300.929Z" fill="#263238"/>
<path d="M45.6616 300.929C45.4367 300.929 45.2544 300.746 45.2544 300.521C45.2544 300.297 45.4367 300.114 45.6616 300.114C45.8865 300.114 46.0688 300.297 46.0688 300.521C46.0688 300.746 45.8865 300.929 45.6616 300.929Z" fill="#263238"/>
<path d="M46.6797 302.558C46.4547 302.558 46.2724 302.375 46.2724 302.15C46.2724 301.925 46.4547 301.743 46.6797 301.743C46.9046 301.743 47.0869 301.925 47.0869 302.15C47.0869 302.375 46.9046 302.558 46.6797 302.558Z" fill="#263238"/>
<path d="M48.9565 302.619C48.7316 302.619 48.5493 302.437 48.5493 302.212C48.5493 301.987 48.7316 301.805 48.9565 301.805C49.1814 301.805 49.3638 301.987 49.3638 302.212C49.3638 302.437 49.1814 302.619 48.9565 302.619Z" fill="#263238"/>
<path d="M51.3994 302.619C51.1745 302.619 50.9922 302.437 50.9922 302.212C50.9922 301.987 51.1745 301.805 51.3994 301.805C51.6243 301.805 51.8066 301.987 51.8066 302.212C51.8066 302.437 51.6243 302.619 51.3994 302.619Z" fill="#263238"/>
<path d="M53.7412 302.619C53.5163 302.619 53.3339 302.437 53.3339 302.212C53.3339 301.987 53.5163 301.805 53.7412 301.805C53.9661 301.805 54.1484 301.987 54.1484 302.212C54.1484 302.437 53.9661 302.619 53.7412 302.619Z" fill="#263238"/>
<path d="M56.1479 302.558C55.923 302.558 55.7407 302.375 55.7407 302.15C55.7407 301.925 55.923 301.743 56.1479 301.743C56.3729 301.743 56.5552 301.925 56.5552 302.15C56.5552 302.375 56.3729 302.558 56.1479 302.558Z" fill="#263238"/>
<path d="M58.5903 302.558C58.3654 302.558 58.1831 302.375 58.1831 302.15C58.1831 301.925 58.3654 301.743 58.5903 301.743C58.8152 301.743 58.9976 301.925 58.9976 302.15C58.9976 302.375 58.8152 302.558 58.5903 302.558Z" fill="#263238"/>
<path d="M59.5068 304.288C59.2819 304.288 59.0996 304.106 59.0996 303.881C59.0996 303.656 59.2819 303.474 59.5068 303.474C59.7317 303.474 59.9141 303.656 59.9141 303.881C59.9141 304.106 59.7317 304.288 59.5068 304.288Z" fill="#263238"/>
<path d="M57.2671 304.288C57.0422 304.288 56.8598 304.106 56.8598 303.881C56.8598 303.656 57.0422 303.474 57.2671 303.474C57.492 303.474 57.6743 303.656 57.6743 303.881C57.6743 304.106 57.492 304.288 57.2671 304.288Z" fill="#263238"/>
<path d="M54.9253 304.288C54.7004 304.288 54.5181 304.106 54.5181 303.881C54.5181 303.656 54.7004 303.474 54.9253 303.474C55.1502 303.474 55.3325 303.656 55.3325 303.881C55.3325 304.106 55.1502 304.288 54.9253 304.288Z" fill="#263238"/>
<path d="M52.5195 304.35C52.2946 304.35 52.1123 304.167 52.1123 303.942C52.1123 303.717 52.2946 303.535 52.5195 303.535C52.7444 303.535 52.9268 303.717 52.9268 303.942C52.9268 304.167 52.7444 304.35 52.5195 304.35Z" fill="#263238"/>
<path d="M50.1787 304.35C49.9538 304.35 49.7714 304.167 49.7714 303.942C49.7714 303.717 49.9538 303.535 50.1787 303.535C50.4036 303.535 50.5859 303.717 50.5859 303.942C50.5859 304.167 50.4036 304.35 50.1787 304.35Z" fill="#263238"/>
<path d="M47.9004 304.288C47.6755 304.288 47.4932 304.106 47.4932 303.881C47.4932 303.656 47.6755 303.474 47.9004 303.474C48.1253 303.474 48.3076 303.656 48.3076 303.881C48.3076 304.106 48.1253 304.288 47.9004 304.288Z" fill="#263238"/>
<path d="M45.6616 304.288C45.4367 304.288 45.2544 304.106 45.2544 303.881C45.2544 303.656 45.4367 303.474 45.6616 303.474C45.8865 303.474 46.0688 303.656 46.0688 303.881C46.0688 304.106 45.8865 304.288 45.6616 304.288Z" fill="#263238"/>
<path d="M46.6797 305.815C46.4547 305.815 46.2724 305.633 46.2724 305.408C46.2724 305.183 46.4547 305.001 46.6797 305.001C46.9046 305.001 47.0869 305.183 47.0869 305.408C47.0869 305.633 46.9046 305.815 46.6797 305.815Z" fill="#263238"/>
<path d="M48.9565 305.877C48.7316 305.877 48.5493 305.695 48.5493 305.47C48.5493 305.245 48.7316 305.062 48.9565 305.062C49.1814 305.062 49.3638 305.245 49.3638 305.47C49.3638 305.695 49.1814 305.877 48.9565 305.877Z" fill="#263238"/>
<path d="M51.3994 305.877C51.1745 305.877 50.9922 305.695 50.9922 305.47C50.9922 305.245 51.1745 305.062 51.3994 305.062C51.6243 305.062 51.8066 305.245 51.8066 305.47C51.8066 305.695 51.6243 305.877 51.3994 305.877Z" fill="#263238"/>
<path d="M53.7412 305.877C53.5163 305.877 53.3339 305.695 53.3339 305.47C53.3339 305.245 53.5163 305.062 53.7412 305.062C53.9661 305.062 54.1484 305.245 54.1484 305.47C54.1484 305.695 53.9661 305.877 53.7412 305.877Z" fill="#263238"/>
<path d="M56.1479 305.815C55.923 305.815 55.7407 305.633 55.7407 305.408C55.7407 305.183 55.923 305.001 56.1479 305.001C56.3729 305.001 56.5552 305.183 56.5552 305.408C56.5552 305.633 56.3729 305.815 56.1479 305.815Z" fill="#263238"/>
<path d="M58.5903 305.815C58.3654 305.815 58.1831 305.633 58.1831 305.408C58.1831 305.183 58.3654 305.001 58.5903 305.001C58.8152 305.001 58.9976 305.183 58.9976 305.408C58.9976 305.633 58.8152 305.815 58.5903 305.815Z" fill="#263238"/>
<path d="M59.5068 307.648C59.2819 307.648 59.0996 307.466 59.0996 307.241C59.0996 307.016 59.2819 306.834 59.5068 306.834C59.7317 306.834 59.9141 307.016 59.9141 307.241C59.9141 307.466 59.7317 307.648 59.5068 307.648Z" fill="#263238"/>
<path d="M57.2671 307.648C57.0422 307.648 56.8598 307.466 56.8598 307.241C56.8598 307.016 57.0422 306.834 57.2671 306.834C57.492 306.834 57.6743 307.016 57.6743 307.241C57.6743 307.466 57.492 307.648 57.2671 307.648Z" fill="#263238"/>
<path d="M54.9253 307.648C54.7004 307.648 54.5181 307.466 54.5181 307.241C54.5181 307.016 54.7004 306.834 54.9253 306.834C55.1502 306.834 55.3325 307.016 55.3325 307.241C55.3325 307.466 55.1502 307.648 54.9253 307.648Z" fill="#263238"/>
<path d="M52.5195 307.71C52.2946 307.71 52.1123 307.528 52.1123 307.303C52.1123 307.078 52.2946 306.896 52.5195 306.896C52.7444 306.896 52.9268 307.078 52.9268 307.303C52.9268 307.528 52.7444 307.71 52.5195 307.71Z" fill="#263238"/>
<path d="M50.1787 307.71C49.9538 307.71 49.7714 307.528 49.7714 307.303C49.7714 307.078 49.9538 306.896 50.1787 306.896C50.4036 306.896 50.5859 307.078 50.5859 307.303C50.5859 307.528 50.4036 307.71 50.1787 307.71Z" fill="#263238"/>
<path d="M47.9004 307.648C47.6755 307.648 47.4932 307.466 47.4932 307.241C47.4932 307.016 47.6755 306.834 47.9004 306.834C48.1253 306.834 48.3076 307.016 48.3076 307.241C48.3076 307.466 48.1253 307.648 47.9004 307.648Z" fill="#263238"/>
<path d="M45.6616 307.648C45.4367 307.648 45.2544 307.466 45.2544 307.241C45.2544 307.016 45.4367 306.834 45.6616 306.834C45.8865 306.834 46.0688 307.016 46.0688 307.241C46.0688 307.466 45.8865 307.648 45.6616 307.648Z" fill="#263238"/>
<path d="M46.6797 309.176C46.4547 309.176 46.2724 308.993 46.2724 308.769C46.2724 308.544 46.4547 308.361 46.6797 308.361C46.9046 308.361 47.0869 308.544 47.0869 308.769C47.0869 308.993 46.9046 309.176 46.6797 309.176Z" fill="#263238"/>
<path d="M48.9565 309.237C48.7316 309.237 48.5493 309.055 48.5493 308.83C48.5493 308.605 48.7316 308.423 48.9565 308.423C49.1814 308.423 49.3638 308.605 49.3638 308.83C49.3638 309.055 49.1814 309.237 48.9565 309.237Z" fill="#263238"/>
<path d="M51.3994 309.237C51.1745 309.237 50.9922 309.055 50.9922 308.83C50.9922 308.605 51.1745 308.423 51.3994 308.423C51.6243 308.423 51.8066 308.605 51.8066 308.83C51.8066 309.055 51.6243 309.237 51.3994 309.237Z" fill="#263238"/>
<path d="M53.7412 309.237C53.5163 309.237 53.3339 309.055 53.3339 308.83C53.3339 308.605 53.5163 308.423 53.7412 308.423C53.9661 308.423 54.1484 308.605 54.1484 308.83C54.1484 309.055 53.9661 309.237 53.7412 309.237Z" fill="#263238"/>
<path d="M56.1479 309.176C55.923 309.176 55.7407 308.993 55.7407 308.769C55.7407 308.544 55.923 308.361 56.1479 308.361C56.3729 308.361 56.5552 308.544 56.5552 308.769C56.5552 308.993 56.3729 309.176 56.1479 309.176Z" fill="#263238"/>
<path d="M58.5903 309.176C58.3654 309.176 58.1831 308.993 58.1831 308.769C58.1831 308.544 58.3654 308.361 58.5903 308.361C58.8152 308.361 58.9976 308.544 58.9976 308.769C58.9976 308.993 58.8152 309.176 58.5903 309.176Z" fill="#263238"/>
<path d="M390.589 227.423V237.197H336.732V382.173H331.744V237.197L106.644 238.316V382.173H101.757V238.011L67.0401 238.316V226.608L390.589 227.423Z" fill="#FF8F6B"/>
<path d="M356.076 235.263L334.798 250.534L336.732 252.367L358.112 236.179L356.076 235.263Z" fill="#FF8F6B"/>
<path d="M81.7013 236.688L106.441 254.3L104.608 256.031L79.7669 237.604L81.7013 236.688Z" fill="#FF8F6B"/>
<path d="M256.507 223.859H312.196V227.932H256.507V223.859Z" fill="#263238"/>
</svg>
