<svg width="46" height="47" viewBox="0 0 46 47" fill="none" xmlns="http://www.w3.org/2000/svg">
<path opacity="0.5" d="M22.9998 46.4995C12.1577 46.4995 6.73663 46.4995 3.36717 43.1301C0 39.7652 0 34.3419 0 23.4998C0 12.6577 0 7.23663 3.36717 3.86717C6.73893 0.5 12.1577 0.5 22.9998 0.5C33.8419 0.5 39.2629 0.5 42.6301 3.86717C45.9995 7.23893 45.9995 12.6577 45.9995 23.4998C45.9995 34.3419 45.9995 39.7629 42.6301 43.1301C39.2652 46.4995 33.8419 46.4995 22.9998 46.4995Z" fill="#0472ED"/>
<path d="M22.9993 7.97461C23.4568 7.97461 23.8955 8.15635 24.219 8.47984C24.5425 8.80334 24.7243 9.2421 24.7243 9.69959V37.2993C24.7243 37.7568 24.5425 38.1956 24.219 38.5191C23.8955 38.8426 23.4568 39.0243 22.9993 39.0243C22.5418 39.0243 22.103 38.8426 21.7795 38.5191C21.456 38.1956 21.2743 37.7568 21.2743 37.2993V9.69959C21.2743 9.2421 21.456 8.80334 21.7795 8.47984C22.103 8.15635 22.5418 7.97461 22.9993 7.97461ZM11.4994 14.8745C11.9569 14.8745 12.3956 15.0563 12.7191 15.3798C13.0426 15.7033 13.2244 16.142 13.2244 16.5995V37.2993C13.2244 37.7568 13.0426 38.1956 12.7191 38.5191C12.3956 38.8426 11.9569 39.0243 11.4994 39.0243C11.0419 39.0243 10.6031 38.8426 10.2796 38.5191C9.95615 38.1956 9.77441 37.7568 9.77441 37.2993V16.5995C9.77441 16.142 9.95615 15.7033 10.2796 15.3798C10.6031 15.0563 11.0419 14.8745 11.4994 14.8745ZM34.4992 24.0745C34.9567 24.0745 35.3954 24.2562 35.7189 24.5797C36.0424 24.9032 36.2242 25.3419 36.2242 25.7994V37.2993C36.2242 37.7568 36.0424 38.1956 35.7189 38.5191C35.3954 38.8426 34.9567 39.0243 34.4992 39.0243C34.0417 39.0243 33.6029 38.8426 33.2794 38.5191C32.9559 38.1956 32.7742 37.7568 32.7742 37.2993V25.7994C32.7742 25.3419 32.9559 24.9032 33.2794 24.5797C33.6029 24.2562 34.0417 24.0745 34.4992 24.0745Z" fill="#0472ED"/>
</svg>
