<svg width="42" height="42" viewBox="0 0 42 42" fill="none" xmlns="http://www.w3.org/2000/svg">
<path d="M13.4862 39.0979C17.1739 41.0341 19.0177 42.0001 21.0001 42.0001V21.0001L1.3398 10.6533C1.31123 10.6999 1.28323 10.7468 1.2558 10.794C1.2517e-07 12.9234 0 15.5757 0 20.8783V21.124C0 26.4244 -2.5034e-07 29.0767 1.2537 31.2061C2.50951 33.3376 4.76911 34.5241 9.28623 36.895L13.4862 39.0979Z" fill="#0472ED"/>
<path opacity="0.7" d="M32.7118 5.10722L28.5118 2.90221C24.8263 0.968103 22.9825 0 21.0001 0C19.0156 0 17.1739 0.966003 13.4863 2.90221L9.28627 5.10722C4.86785 7.42562 2.60825 8.61003 1.33984 10.6512L21.0001 21.0001L40.6604 10.6533C39.3878 8.61003 37.1324 7.42562 32.7118 5.10722Z" fill="#0472ED"/>
<path opacity="0.5" d="M40.7464 10.794C40.7182 10.7468 40.6895 10.6999 40.6603 10.6533L21 21.0001V42.0001C22.9824 42.0001 24.8262 41.0341 28.5138 39.0979L32.7138 36.8929C37.2309 34.522 39.4906 33.3376 40.7464 31.2061C42.0001 29.0767 42.0001 26.4244 42.0001 21.1261V20.8804C42.0001 15.5778 42.0001 12.9234 40.7464 10.794Z" fill="#0472ED"/>
<path d="M9.07842 5.21654L9.28842 5.10734L12.4237 3.46094L31.5338 13.9715L39.9863 9.74836C40.274 10.0739 40.526 10.4204 40.7465 10.7942C41.0615 11.3276 41.2967 11.8946 41.4731 12.5267L33.0752 16.7246V23.1002C33.0752 23.5179 32.9093 23.9185 32.6139 24.2139C32.3185 24.5093 31.9179 24.6752 31.5002 24.6752C31.0825 24.6752 30.6819 24.5093 30.3865 24.2139C30.0911 23.9185 29.9252 23.5179 29.9252 23.1002V18.2996L22.5752 21.9746V41.7986C22.0605 41.9307 21.5315 41.9984 21.0002 42.0002C20.4794 42.0002 19.9649 41.933 19.4252 41.7986V21.9746L0.529297 12.5246C0.705697 11.8946 0.940898 11.3276 1.2559 10.7942C1.47454 10.4216 1.72916 10.0713 2.0161 9.74836L21.0002 19.2404L28.1108 15.6851L9.07842 5.21654Z" fill="#0472ED"/>
</svg>
