<svg width="53" height="29" viewBox="0 0 53 29" fill="none" xmlns="http://www.w3.org/2000/svg">
<path fill-rule="evenodd" clip-rule="evenodd" d="M39.7132 27.113C43.0572 27.113 46.2643 25.7846 48.6289 23.42C50.9935 21.0554 52.3219 17.8483 52.3219 14.5043C52.3219 11.1602 50.9935 7.95316 48.6289 5.58857C46.2643 3.22398 43.0572 1.89557 39.7132 1.89557C36.3692 1.89557 33.1621 3.22398 30.7975 5.58857C28.4329 7.95316 27.1045 11.1602 27.1045 14.5043C27.1045 17.8483 28.4329 21.0554 30.7975 23.42C33.1621 25.7846 36.3692 27.113 39.7132 27.113ZM41.6045 9.46079C41.6045 8.95918 41.4052 8.47812 41.0505 8.12344C40.6959 7.76875 40.2148 7.56948 39.7132 7.56948C39.2116 7.56948 38.7305 7.76875 38.3758 8.12344C38.0211 8.47812 37.8219 8.95918 37.8219 9.46079V14.1159C37.8219 14.5698 37.9858 15.0111 38.2834 15.3541L40.8051 18.2642C40.9677 18.452 41.1657 18.6059 41.3878 18.7171C41.6098 18.8284 41.8517 18.8948 42.0994 18.9126C42.3472 18.9304 42.596 18.8992 42.8317 18.8208C43.0674 18.7425 43.2853 18.6184 43.4731 18.4558C43.6609 18.2932 43.8148 18.0952 43.926 17.8732C44.0373 17.6511 44.1037 17.4093 44.1215 17.1615C44.1393 16.9138 44.1081 16.665 44.0297 16.4293C43.9514 16.1936 43.8274 15.9756 43.6648 15.7878L41.6045 13.4098V9.46079Z" fill="#E69D49"/>
<path opacity="0.5" fill-rule="evenodd" clip-rule="evenodd" d="M0 1.8913C0 1.3897 0.199262 0.908638 0.55395 0.55395C0.908639 0.199262 1.3897 0 1.89131 0H22.0652C22.5668 0 23.0479 0.199262 23.4026 0.55395C23.7573 0.908638 23.9565 1.3897 23.9565 1.8913C23.9565 2.39291 23.7573 2.87397 23.4026 3.22866C23.0479 3.58335 22.5668 3.78261 22.0652 3.78261H1.89131C1.3897 3.78261 0.908639 3.58335 0.55395 3.22866C0.199262 2.87397 0 2.39291 0 1.8913ZM0 14.5C0 13.9984 0.199262 13.5173 0.55395 13.1626C0.908639 12.808 1.3897 12.6087 1.89131 12.6087H17.0217C17.5234 12.6087 18.0044 12.808 18.3591 13.1626C18.7138 13.5173 18.9131 13.9984 18.9131 14.5C18.9131 15.0016 18.7138 15.4827 18.3591 15.8374C18.0044 16.192 17.5234 16.3913 17.0217 16.3913H1.89131C1.3897 16.3913 0.908639 16.192 0.55395 15.8374C0.199262 15.4827 0 15.0016 0 14.5ZM0 27.1087C0 26.6071 0.199262 26.126 0.55395 25.7713C0.908639 25.4167 1.3897 25.2174 1.89131 25.2174H22.0652C22.5668 25.2174 23.0479 25.4167 23.4026 25.7713C23.7573 26.126 23.9565 26.6071 23.9565 27.1087C23.9565 27.6103 23.7573 28.0914 23.4026 28.4461C23.0479 28.8007 22.5668 29 22.0652 29H1.89131C1.3897 29 0.908639 28.8007 0.55395 28.4461C0.199262 28.0914 0 27.6103 0 27.1087Z" fill="#E69D49"/>
</svg>
