<svg width="38" height="39" viewBox="0 0 38 39" fill="none" xmlns="http://www.w3.org/2000/svg">
<path fill-rule="evenodd" clip-rule="evenodd" d="M0 9.30461C0 6.96961 0.927575 4.73025 2.57867 3.07916C4.22976 1.42806 6.46913 0.500488 8.80413 0.500488C11.1391 0.500488 13.3785 1.42806 15.0296 3.07916C16.6807 4.73025 17.6083 6.96961 17.6083 9.30461C17.6083 11.6396 16.6807 13.879 15.0296 15.5301C13.3785 17.1812 11.1391 18.1087 8.80413 18.1087C6.46913 18.1087 4.22976 17.1812 2.57867 15.5301C0.927575 13.879 0 11.6396 0 9.30461Z" fill="#00A966"/>
<path opacity="0.5" fill-rule="evenodd" clip-rule="evenodd" d="M20.3896 29.6942C20.3896 28.5379 20.6174 27.393 21.0599 26.3247C21.5024 25.2564 22.151 24.2857 22.9686 23.4681C23.7862 22.6505 24.7569 22.0019 25.8252 21.5594C26.8934 21.1169 28.0384 20.8892 29.1947 20.8892C30.351 20.8892 31.496 21.1169 32.5643 21.5594C33.6326 22.0019 34.6032 22.6505 35.4209 23.4681C36.2385 24.2857 36.8871 25.2564 37.3296 26.3247C37.772 27.393 37.9998 28.5379 37.9998 29.6942C37.9998 32.0295 37.0721 34.2691 35.4209 35.9204C33.7696 37.5716 31.53 38.4993 29.1947 38.4993C26.8595 38.4993 24.6199 37.5716 22.9686 35.9204C21.3173 34.2691 20.3896 32.0295 20.3896 29.6942Z" fill="#00A966"/>
<path d="M0 29.949C0 25.9193 -1.13243e-07 23.9035 1.25203 22.6514C2.50407 21.3994 4.51986 21.3994 8.54954 21.3994C12.5792 21.3994 14.595 21.3994 15.847 22.6514C17.0991 23.9035 17.0991 25.9193 17.0991 29.949C17.0991 33.9786 17.0991 35.9944 15.847 37.2465C14.595 38.4985 12.5792 38.4985 8.54954 38.4985C4.51986 38.4985 2.50407 38.4985 1.25203 37.2465C-1.13243e-07 35.9944 0 33.9786 0 29.949Z" fill="#00A966"/>
<path opacity="0.5" d="M20.8994 9.05003C20.8994 5.02035 20.8994 3.00455 22.1514 1.75252C23.4035 0.500488 25.4193 0.500488 29.449 0.500488C33.4786 0.500488 35.4944 0.500488 36.7465 1.75252C37.9985 3.00455 37.9985 5.02035 37.9985 9.05003C37.9985 13.0797 37.9985 15.0955 36.7465 16.3475C35.4944 17.5996 33.4786 17.5996 29.449 17.5996C25.4193 17.5996 23.4035 17.5996 22.1514 16.3475C20.8994 15.0955 20.8994 13.0797 20.8994 9.05003Z" fill="#00A966"/>
</svg>
