<svg width="40" height="46" viewBox="0 0 40 46" fill="none" xmlns="http://www.w3.org/2000/svg">
<path opacity="0.5" d="M0 19.4559C0 12.3492 6.62274e-08 8.79591 0.84 7.60035C1.67778 6.40702 5.01778 5.26258 11.7 2.97591L12.9733 2.54035C16.4556 1.34702 18.1956 0.751465 20 0.751465C21.8022 0.751465 23.5444 1.34702 27.0267 2.54035L28.3 2.97591C34.9822 5.26258 38.3222 6.40702 39.16 7.60035C40 8.79591 40 12.3515 40 19.4559V22.9537C40 35.4826 30.58 41.5648 24.6689 44.1448C23.0667 44.8448 22.2667 45.1959 20 45.1959C17.7333 45.1959 16.9333 44.8448 15.3311 44.1448C9.42 41.5626 0 35.4848 0 22.9537V19.4559Z" fill="#E9A92A"/>
<path d="M24.4447 16.3072C24.4447 17.486 23.9764 18.6164 23.1429 19.4499C22.3094 20.2834 21.179 20.7517 20.0002 20.7517C18.8215 20.7517 17.691 20.2834 16.8575 19.4499C16.024 18.6164 15.5558 17.486 15.5558 16.3072C15.5558 15.1285 16.024 13.998 16.8575 13.1645C17.691 12.331 18.8215 11.8628 20.0002 11.8628C21.179 11.8628 22.3094 12.331 23.1429 13.1645C23.9764 13.998 24.4447 15.1285 24.4447 16.3072ZM20.0002 34.085C28.8891 34.085 28.8891 32.0961 28.8891 29.6406C28.8891 27.185 24.9113 25.1961 20.0002 25.1961C15.0891 25.1961 11.1113 27.185 11.1113 29.6406C11.1113 32.0961 11.1113 34.085 20.0002 34.085Z" fill="#E9A92A"/>
</svg>
