<svg width="32" height="37" viewBox="0 0 32 37" fill="none" xmlns="http://www.w3.org/2000/svg">
<path opacity="0.5" d="M0 15.3723C0 9.61588 5.29819e-08 6.73768 0.672 5.76928C1.34222 4.80268 4.01422 3.87568 9.36 2.02348L10.3787 1.67068C13.1644 0.70408 14.5564 0.22168 16 0.22168C17.4418 0.22168 18.8356 0.70408 21.6213 1.67068L22.64 2.02348C27.9858 3.87568 30.6578 4.80268 31.328 5.76928C32 6.73768 32 9.61768 32 15.3723V18.2055C32 28.3539 24.464 33.2805 19.7351 35.3703C18.4533 35.9373 17.8133 36.2217 16 36.2217C14.1867 36.2217 13.5467 35.9373 12.2649 35.3703C7.536 33.2787 0 28.3557 0 18.2055V15.3723Z" fill="#0795FE"/>
<path d="M19.5553 12.8217C19.5553 13.7765 19.1807 14.6921 18.5139 15.3673C17.8471 16.0424 16.9428 16.4217 15.9998 16.4217C15.0568 16.4217 14.1524 16.0424 13.4856 15.3673C12.8188 14.6921 12.4442 13.7765 12.4442 12.8217C12.4442 11.8669 12.8188 10.9512 13.4856 10.2761C14.1524 9.60096 15.0568 9.22168 15.9998 9.22168C16.9428 9.22168 17.8471 9.60096 18.5139 10.2761C19.1807 10.9512 19.5553 11.8669 19.5553 12.8217ZM15.9998 27.2217C23.1109 27.2217 23.1109 25.6107 23.1109 23.6217C23.1109 21.6327 19.9287 20.0217 15.9998 20.0217C12.0709 20.0217 8.88867 21.6327 8.88867 23.6217C8.88867 25.6107 8.88867 27.2217 15.9998 27.2217Z" fill="#0795FE"/>
</svg>
