<svg width="42" height="47" viewBox="0 0 42 47" fill="none" xmlns="http://www.w3.org/2000/svg">
<path opacity="0.5" d="M0 19.8589C0 12.5036 6.85447e-08 8.82592 0.869391 7.58853C1.73648 6.35344 5.19335 5.16895 12.1094 2.80228L13.4273 2.35148C17.0313 1.11639 18.8322 0.5 20.6998 0.5C22.5651 0.5 24.3683 1.11639 27.9723 2.35148L29.2902 2.80228C36.2062 5.16895 39.6631 6.35344 40.5302 7.58853C41.3996 8.82592 41.3996 12.5059 41.3996 19.8589V23.4791C41.3996 36.4463 31.65 42.7414 25.532 45.4117C23.8738 46.1362 23.0458 46.4995 20.6998 46.4995C18.3538 46.4995 17.5258 46.1362 15.8675 45.4117C9.7496 42.7391 0 36.4486 0 23.4791V19.8589Z" fill="#FF5A41"/>
<path d="M25.2994 16.6C25.2994 17.8199 24.8147 18.99 23.9521 19.8526C23.0894 20.7153 21.9194 21.1999 20.6994 21.1999C19.4794 21.1999 18.3094 20.7153 17.4468 19.8526C16.5841 18.99 16.0995 17.8199 16.0995 16.6C16.0995 15.38 16.5841 14.21 17.4468 13.3473C18.3094 12.4846 19.4794 12 20.6994 12C21.9194 12 23.0894 12.4846 23.9521 13.3473C24.8147 14.21 25.2994 15.38 25.2994 16.6ZM20.6994 34.9998C29.8993 34.9998 29.8993 32.9413 29.8993 30.3998C29.8993 27.8583 25.7824 25.7999 20.6994 25.7999C15.6165 25.7999 11.4995 27.8583 11.4995 30.3998C11.4995 32.9413 11.4995 34.9998 20.6994 34.9998Z" fill="#FF5A41"/>
</svg>
