<svg width="38" height="39" viewBox="0 0 38 39" fill="none" xmlns="http://www.w3.org/2000/svg">
<path fill-rule="evenodd" clip-rule="evenodd" d="M0 9.30464C0 6.96965 0.927575 4.73028 2.57867 3.07919C4.22976 1.42809 6.46913 0.500519 8.80413 0.500519C11.1391 0.500519 13.3785 1.42809 15.0296 3.07919C16.6807 4.73028 17.6083 6.96965 17.6083 9.30464C17.6083 11.6396 16.6807 13.879 15.0296 15.5301C13.3785 17.1812 11.1391 18.1088 8.80413 18.1088C6.46913 18.1088 4.22976 17.1812 2.57867 15.5301C0.927575 13.879 0 11.6396 0 9.30464Z" fill="#0472ED"/>
<path opacity="0.5" fill-rule="evenodd" clip-rule="evenodd" d="M20.3896 29.6944C20.3896 28.5381 20.6174 27.3931 21.0599 26.3248C21.5024 25.2566 22.151 24.2859 22.9686 23.4683C23.7862 22.6506 24.7569 22.0021 25.8252 21.5596C26.8934 21.1171 28.0384 20.8893 29.1947 20.8893C30.351 20.8893 31.496 21.1171 32.5643 21.5596C33.6326 22.0021 34.6032 22.6506 35.4209 23.4683C36.2385 24.2859 36.8871 25.2566 37.3296 26.3248C37.772 27.3931 37.9998 28.5381 37.9998 29.6944C37.9998 32.0296 37.0721 34.2692 35.4209 35.9205C33.7696 37.5718 31.53 38.4995 29.1947 38.4995C26.8595 38.4995 24.6199 37.5718 22.9686 35.9205C21.3173 34.2692 20.3896 32.0296 20.3896 29.6944Z" fill="#0472ED"/>
<path d="M0 29.9485C0 25.9188 -1.13243e-07 23.903 1.25203 22.651C2.50407 21.399 4.51986 21.399 8.54954 21.399C12.5792 21.399 14.595 21.399 15.847 22.651C17.0991 23.903 17.0991 25.9188 17.0991 29.9485C17.0991 33.9782 17.0991 35.994 15.847 37.246C14.595 38.498 12.5792 38.498 8.54954 38.498C4.51986 38.498 2.50407 38.498 1.25203 37.246C-1.13243e-07 35.994 0 33.9782 0 29.9485Z" fill="#0472ED"/>
<path opacity="0.5" d="M20.8994 9.05003C20.8994 5.02035 20.8994 3.00455 22.1514 1.75252C23.4035 0.500488 25.4193 0.500488 29.449 0.500488C33.4786 0.500488 35.4944 0.500488 36.7465 1.75252C37.9985 3.00455 37.9985 5.02035 37.9985 9.05003C37.9985 13.0797 37.9985 15.0955 36.7465 16.3475C35.4944 17.5996 33.4786 17.5996 29.449 17.5996C25.4193 17.5996 23.4035 17.5996 22.1514 16.3475C20.8994 15.0955 20.8994 13.0797 20.8994 9.05003Z" fill="#0472ED"/>
</svg>
