<svg width="18" height="18" viewBox="0 0 18 18" fill="none" xmlns="http://www.w3.org/2000/svg">
<path d="M1.31006 4.01038C1.31006 2.57119 2.56366 1.40479 4.11006 1.40479C5.65646 1.40479 6.91006 2.57119 6.91006 4.01038C6.91006 5.43838 6.01646 7.10478 4.62206 7.70078C4.46011 7.76952 4.28599 7.80495 4.11006 7.80495C3.93413 7.80495 3.76 7.76952 3.59806 7.70078C2.20366 7.10478 1.31006 5.43838 1.31006 4.01038ZM11.7101 13.6104C11.7101 12.1712 12.9637 11.0048 14.5101 11.0048C16.0565 11.0048 17.3101 12.1712 17.3101 13.6104C17.3101 15.0384 16.4165 16.7048 15.0221 17.3008C14.8601 17.3695 14.686 17.4049 14.5101 17.4049C14.3341 17.4049 14.16 17.3695 13.9981 17.3008C12.6037 16.7048 11.7101 15.0384 11.7101 13.6104Z" stroke="#8392A5" stroke-width="1.2"/>
<path opacity="0.5" d="M9.31002 3.20508C9.15089 3.20508 8.99828 3.26829 8.88576 3.38081C8.77324 3.49334 8.71002 3.64595 8.71002 3.80508C8.71002 3.96421 8.77324 4.11682 8.88576 4.22934C8.99828 4.34186 9.15089 4.40508 9.31002 4.40508V3.20508ZM9.31002 15.0051L9.73402 15.4291C9.84638 15.3166 9.9095 15.1641 9.9095 15.0051C9.9095 14.8461 9.84638 14.6936 9.73402 14.5811L9.31002 15.0051ZM8.53402 13.3811C8.42028 13.2751 8.26985 13.2174 8.11441 13.2201C7.95897 13.2229 7.81066 13.2858 7.70073 13.3958C7.5908 13.5057 7.52783 13.654 7.52508 13.8095C7.52234 13.9649 7.58004 14.1153 7.68602 14.2291L8.53402 13.3811ZM7.68602 15.7811C7.62707 15.836 7.57979 15.9022 7.547 15.9758C7.51421 16.0494 7.49657 16.1289 7.49515 16.2095C7.49373 16.29 7.50855 16.37 7.53873 16.4448C7.5689 16.5195 7.61382 16.5873 7.67079 16.6443C7.72777 16.7013 7.79564 16.7462 7.87035 16.7764C7.94506 16.8066 8.02508 16.8214 8.10564 16.82C8.1862 16.8185 8.26566 16.8009 8.33925 16.7681C8.41285 16.7353 8.47909 16.688 8.53402 16.6291L7.68602 15.7811ZM12.6156 3.20508H9.31002V4.40508H12.6156V3.20508ZM9.31002 14.4051H6.00442V15.6051H9.31002V14.4051ZM13.1524 6.24908L4.82362 11.5491L5.46762 12.5611L13.7964 7.26108L13.1524 6.24908ZM9.73402 14.5811L8.53402 13.3811L7.68602 14.2291L8.88602 15.4291L9.73402 14.5811ZM8.88602 14.5811L7.68602 15.7811L8.53402 16.6291L9.73402 15.4291L8.88602 14.5811ZM6.00442 14.4051C5.00442 14.4051 4.62362 13.0987 5.46762 12.5611L4.82362 11.5491C2.96682 12.7307 3.80362 15.6051 6.00442 15.6051V14.4051ZM12.6156 4.40508C13.6156 4.40508 13.9964 5.71148 13.1524 6.24908L13.7964 7.26108C15.6532 6.07948 14.8164 3.20508 12.6156 3.20508V4.40508Z" fill="#8392A5"/>
<path d="M14.5105 13.8051H14.5177M4.10254 4.20508H4.11054" stroke="#8392A5" stroke-width="1.2" stroke-linecap="round" stroke-linejoin="round"/>
</svg>
