<svg width="17" height="17" viewBox="0 0 17 17" fill="none" xmlns="http://www.w3.org/2000/svg">
<path d="M5.63889 1H2C1.44772 1 1 1.44772 1 2V5.63889C1 6.19117 1.44772 6.63889 2 6.63889H5.63889C6.19117 6.63889 6.63889 6.19117 6.63889 5.63889V2C6.63889 1.44772 6.19117 1 5.63889 1Z" stroke="#8A94A6" stroke-width="1.2" stroke-linecap="round" stroke-linejoin="round"/>
<path d="M14.5002 1H10.8613C10.309 1 9.86133 1.44772 9.86133 2V5.63889C9.86133 6.19117 10.309 6.63889 10.8613 6.63889H14.5002C15.0525 6.63889 15.5002 6.19117 15.5002 5.63889V2C15.5002 1.44772 15.0525 1 14.5002 1Z" stroke="#8A94A6" stroke-width="1.2" stroke-linecap="round" stroke-linejoin="round"/>
<path d="M14.5002 9.86133H10.8613C10.309 9.86133 9.86133 10.309 9.86133 10.8613V14.5002C9.86133 15.0525 10.309 15.5002 10.8613 15.5002H14.5002C15.0525 15.5002 15.5002 15.0525 15.5002 14.5002V10.8613C15.5002 10.309 15.0525 9.86133 14.5002 9.86133Z" stroke="#8A94A6" stroke-width="1.2" stroke-linecap="round" stroke-linejoin="round"/>
<path d="M5.63889 9.86133H2C1.44772 9.86133 1 10.309 1 10.8613V14.5002C1 15.0525 1.44772 15.5002 2 15.5002H5.63889C6.19117 15.5002 6.63889 15.0525 6.63889 14.5002V10.8613C6.63889 10.309 6.19117 9.86133 5.63889 9.86133Z" stroke="#8A94A6" stroke-width="1.2" stroke-linecap="round" stroke-linejoin="round"/>
</svg>
