<svg width="18" height="18" viewBox="0 0 18 18" fill="none" xmlns="http://www.w3.org/2000/svg">
<path d="M17.3101 17.4048H1.31006" stroke="#8392A5" stroke-width="1.2" stroke-linecap="round"/>
<path opacity="0.5" d="M16.51 17.4048V4.60479C16.51 3.09599 16.51 2.34239 16.0412 1.87359C15.5724 1.40479 14.8188 1.40479 13.31 1.40479H11.71C10.2012 1.40479 9.44758 1.40479 8.97878 1.87359C8.60118 2.25039 8.52758 2.81279 8.51318 3.80479" stroke="#8392A5" stroke-width="1.2"/>
<path d="M11.7104 17.4047V7.00469C11.7104 5.49589 11.7104 4.74229 11.2416 4.27349C10.7728 3.80469 10.0192 3.80469 8.51035 3.80469H5.31035C3.80155 3.80469 3.04795 3.80469 2.57915 4.27349C2.11035 4.74229 2.11035 5.49589 2.11035 7.00469V17.4047" stroke="#8392A5" stroke-width="1.2"/>
<path d="M6.91016 17.4049V15.0049" stroke="#8392A5" stroke-width="1.2" stroke-linecap="round"/>
<path opacity="0.5" d="M4.50977 6.20508H9.30977M4.50977 8.60508H9.30977M4.50977 11.0051H9.30977" stroke="#8392A5" stroke-width="1.2" stroke-linecap="round"/>
</svg>
