<svg width="20" height="19" viewBox="0 0 20 19" fill="none" xmlns="http://www.w3.org/2000/svg">
<path d="M5.12028 2.20421C5.5699 1.90382 6.04694 1.64665 6.54501 1.43613C7.74771 0.92779 8.34863 0.673191 9.11672 1.18239C9.88309 1.69073 9.88309 2.52311 9.88309 4.18872V5.90319C9.88309 7.51994 9.88309 8.32745 10.3854 8.82979C10.8878 9.33213 11.6953 9.33213 13.312 9.33213H15.0265C16.6913 9.33213 17.5245 9.33213 18.0328 10.0994C18.5412 10.8666 18.2874 11.4675 17.7791 12.6711C17.0106 14.4877 15.6392 15.9837 13.8962 16.9071C12.1533 17.8304 10.1452 18.1245 8.21062 17.7399C6.54763 17.4092 5.02005 16.5928 3.82108 15.3939C2.6221 14.1951 1.80558 12.6675 1.47479 11.0046C1.14399 9.34162 1.31378 7.6179 1.96268 6.05144C2.61158 4.48498 3.71043 3.14613 5.12028 2.20421Z" stroke="#8392A5" stroke-width="1.5"/>
<path opacity="0.5" d="M12.0264 1.02979C13.5089 1.4141 14.8617 2.18781 15.9446 3.27076C17.0276 4.35371 17.8013 5.70651 18.1856 7.18903" stroke="#8392A5" stroke-width="1.5" stroke-linecap="round"/>
</svg>
