<svg width="11" height="12" viewBox="0 0 11 12" fill="none" xmlns="http://www.w3.org/2000/svg">
<path d="M1 3H2H10" stroke="#FF565E" stroke-linecap="round" stroke-linejoin="round"/>
<path d="M8.99976 3V10C8.99976 10.2652 8.8944 10.5196 8.70686 10.7071C8.51933 10.8946 8.26497 11 7.99976 11H2.99976C2.73454 11 2.48019 10.8946 2.29265 10.7071C2.10511 10.5196 1.99976 10.2652 1.99976 10V3M3.49976 3V2C3.49976 1.73478 3.60511 1.48043 3.79265 1.29289C3.98019 1.10536 4.23454 1 4.49976 1H6.49976C6.76497 1 7.01933 1.10536 7.20686 1.29289C7.3944 1.48043 7.49976 1.73478 7.49976 2V3" stroke="#FF565E" stroke-linecap="round" stroke-linejoin="round"/>
<path d="M4.50024 5.5V8.5" stroke="#FF565E" stroke-linecap="round" stroke-linejoin="round"/>
<path d="M6.49976 5.5V8.5" stroke="#FF565E" stroke-linecap="round" stroke-linejoin="round"/>
</svg>
