<svg width="16" height="16" viewBox="0 0 16 16" fill="none" xmlns="http://www.w3.org/2000/svg">
<path d="M4.57326 10.7448C4.59452 10.8216 4.63071 10.8935 4.67977 10.9564C4.72883 11.0193 4.78979 11.0719 4.85917 11.1112C4.92855 11.1505 5.005 11.1758 5.08415 11.1856C5.16329 11.1953 5.24359 11.1894 5.32045 11.1681C5.39731 11.1469 5.46923 11.1107 5.53211 11.0616C5.59498 11.0126 5.64758 10.9516 5.68689 10.8822C5.72621 10.8129 5.75147 10.7364 5.76124 10.6573C5.77101 10.5781 5.7651 10.4978 5.74384 10.421L4.57326 10.7448ZM1.08743 2.21234C1.01027 2.1898 0.929396 2.18281 0.84951 2.19177C0.769624 2.20074 0.692312 2.22547 0.622062 2.26455C0.551812 2.30363 0.490021 2.35627 0.440275 2.41942C0.390529 2.48256 0.353818 2.55496 0.332272 2.63241C0.310727 2.70985 0.304775 2.79081 0.314763 2.87057C0.324751 2.95034 0.35048 3.02732 0.390456 3.09707C0.430433 3.16681 0.483861 3.22792 0.547641 3.27685C0.611422 3.32578 0.684284 3.36156 0.762001 3.38211L1.08743 2.21234ZM14.8397 11.1171C14.9187 11.0989 14.9933 11.0649 15.0591 11.0173C15.1248 10.9697 15.1803 10.9094 15.2223 10.84C15.2643 10.7706 15.292 10.6935 15.3037 10.6132C15.3154 10.5329 15.3109 10.4511 15.2904 10.3726C15.27 10.294 15.234 10.2204 15.1846 10.156C15.1352 10.0917 15.0734 10.0378 15.0029 9.99774C14.9323 9.95765 14.8545 9.93211 14.7739 9.92263C14.6933 9.91314 14.6116 9.91991 14.5337 9.94252L14.8397 11.1171ZM6.7517 12.6018C7.00265 13.5085 6.45217 14.4662 5.4775 14.7195L5.78269 15.8942C7.38313 15.4789 8.36104 13.8687 7.92228 12.278L6.7517 12.6018ZM5.4775 14.7195C4.49635 14.9745 3.51197 14.4046 3.25939 13.4899L2.08882 13.8137C2.52596 15.3963 4.18873 16.3087 5.78269 15.8942L5.4775 14.7195ZM3.25939 13.4899C3.00844 12.5832 3.55892 11.6255 4.53359 11.3722L4.2284 10.1983C2.62796 10.6136 1.64924 12.223 2.08882 13.8137L3.25939 13.4899ZM4.53359 11.3722C5.51474 11.1171 6.49913 11.6871 6.7517 12.6018L7.92228 12.278C7.48513 10.6954 5.82236 9.78305 4.2284 10.1975L4.53359 11.3722ZM5.74384 10.421L4.00173 4.11473L2.83115 4.43854L4.57326 10.7448L5.74384 10.421ZM2.46687 2.59444L1.08743 2.21234L0.762001 3.38211L2.14225 3.76502L2.46687 2.59444ZM4.00173 4.11473C3.89902 3.75032 3.70365 3.41874 3.43466 3.1523C3.16567 2.88587 2.83224 2.69367 2.46687 2.59444L2.14386 3.76502C2.48791 3.86054 2.74373 4.12202 2.83115 4.43854L4.00173 4.11473ZM7.4908 13.0276L14.8397 11.1171L14.5345 9.94252L7.1848 11.853L7.4908 13.0276Z" fill="#8392A5"/>
<path opacity="0.5" d="M6.23987 5.45435C5.84725 4.03363 5.65134 3.32286 5.98487 2.76348C6.31758 2.20329 7.05021 2.01305 8.51545 1.63176L10.0697 1.22862C11.535 0.848137 12.2676 0.657089 12.8448 0.98009C13.422 1.3039 13.6187 2.01386 14.0105 3.43539L14.4274 4.94273C14.8201 6.36345 15.0168 7.07422 14.6832 7.63441C14.3497 8.1938 13.6171 8.38484 12.1519 8.76532L10.5976 9.16928C9.13231 9.54975 8.39969 9.73999 7.8225 9.41699C7.2453 9.09318 7.0494 8.38322 6.65678 6.9625L6.23987 5.45435Z" stroke="#8392A5" stroke-width="1.2"/>
</svg>
