<svg width="12" height="12" viewBox="0 0 12 12" fill="none" xmlns="http://www.w3.org/2000/svg">
<path d="M5.47272 2.0542H1.99394C1.73033 2.0542 1.47752 2.15892 1.29112 2.34532C1.10472 2.53172 1 2.78453 1 3.04814V10.0057C1 10.2693 1.10472 10.5221 1.29112 10.7085C1.47752 10.8949 1.73033 10.9996 1.99394 10.9996H8.95151C9.21512 10.9996 9.46793 10.8949 9.65433 10.7085C9.84073 10.5221 9.94545 10.2693 9.94545 10.0057V6.52692" stroke="#0472ED" stroke-linecap="round" stroke-linejoin="round"/>
<path d="M9.2006 1.30878C9.39831 1.11107 9.66645 1 9.94605 1C10.2257 1 10.4938 1.11107 10.6915 1.30878C10.8892 1.50648 11.0003 1.77463 11.0003 2.05423C11.0003 2.33383 10.8892 2.60198 10.6915 2.79968L5.9703 7.52089L3.98242 8.01786L4.47939 6.02998L9.2006 1.30878Z" stroke="#0472ED" stroke-linecap="round" stroke-linejoin="round"/>
</svg>
