<svg width="18" height="18" viewBox="0 0 18 18" fill="none" xmlns="http://www.w3.org/2000/svg">
<path d="M6.91006 9.40449C6.91006 9.61667 6.82577 9.82015 6.67574 9.97018C6.52571 10.1202 6.32223 10.2045 6.11006 10.2045C5.89789 10.2045 5.6944 10.1202 5.54437 9.97018C5.39434 9.82015 5.31006 9.61667 5.31006 9.40449C5.31006 9.19232 5.39434 8.98884 5.54437 8.83881C5.6944 8.68878 5.89789 8.60449 6.11006 8.60449C6.32223 8.60449 6.52571 8.68878 6.67574 8.83881C6.82577 8.98884 6.91006 9.19232 6.91006 9.40449ZM10.1101 9.40449C10.1101 9.61667 10.0258 9.82015 9.87574 9.97018C9.72571 10.1202 9.52223 10.2045 9.31006 10.2045C9.09789 10.2045 8.8944 10.1202 8.74437 9.97018C8.59434 9.82015 8.51006 9.61667 8.51006 9.40449C8.51006 9.19232 8.59434 8.98884 8.74437 8.83881C8.8944 8.68878 9.09789 8.60449 9.31006 8.60449C9.52223 8.60449 9.72571 8.68878 9.87574 8.83881C10.0258 8.98884 10.1101 9.19232 10.1101 9.40449ZM13.3101 9.40449C13.3101 9.61667 13.2258 9.82015 13.0757 9.97018C12.9257 10.1202 12.7222 10.2045 12.5101 10.2045C12.2979 10.2045 12.0944 10.1202 11.9444 9.97018C11.7943 9.82015 11.7101 9.61667 11.7101 9.40449C11.7101 9.19232 11.7943 8.98884 11.9444 8.83881C12.0944 8.68878 12.2979 8.60449 12.5101 8.60449C12.7222 8.60449 12.9257 8.68878 13.0757 8.83881C13.2258 8.98884 13.3101 9.19232 13.3101 9.40449Z" fill="#8392A5"/>
<path opacity="0.5" d="M1.31006 9.40479C1.31006 5.63359 1.31006 3.74799 2.48126 2.57599C3.65406 1.40479 5.53886 1.40479 9.31006 1.40479C13.0813 1.40479 14.9669 1.40479 16.1381 2.57599C17.3101 3.74879 17.3101 5.63359 17.3101 9.40479C17.3101 13.176 17.3101 15.0616 16.1381 16.2328C14.9677 17.4048 13.0813 17.4048 9.31006 17.4048C5.53886 17.4048 3.65326 17.4048 2.48126 16.2328C1.31006 15.0624 1.31006 13.176 1.31006 9.40479Z" stroke="#8392A5" stroke-width="1.2"/>
</svg>
