<svg width="17" height="18" viewBox="0 0 17 18" fill="none" xmlns="http://www.w3.org/2000/svg">
<path d="M8.8098 11.791C10.1278 11.791 11.1963 10.7225 11.1963 9.40453C11.1963 8.08652 10.1278 7.01807 8.8098 7.01807C7.4918 7.01807 6.42334 8.08652 6.42334 9.40453C6.42334 10.7225 7.4918 11.791 8.8098 11.791Z" stroke="#8392A5" stroke-width="1.2"/>
<path opacity="0.5" d="M10.2141 1.57062C9.92215 1.44971 9.55145 1.44971 8.81006 1.44971C8.06866 1.44971 7.69797 1.44971 7.40602 1.57062C7.21286 1.65058 7.03736 1.76782 6.88953 1.91564C6.74171 2.06347 6.62447 2.23897 6.54451 2.43213C6.47133 2.60953 6.44189 2.81715 6.43076 3.11864C6.4258 3.33659 6.36553 3.54971 6.2556 3.73798C6.14567 3.92625 5.9897 4.08349 5.80232 4.19493C5.61212 4.30156 5.39793 4.35809 5.17988 4.3592C4.96183 4.36032 4.74708 4.30598 4.55579 4.2013C4.28851 4.0597 4.09521 3.98174 3.90349 3.95629C3.48532 3.9013 3.06243 4.0146 2.72776 4.2713C2.47798 4.4646 2.29184 4.78518 1.92114 5.42714C1.55044 6.0691 1.3643 6.38968 1.32373 6.7039C1.29639 6.91109 1.31014 7.12163 1.36419 7.3235C1.41824 7.52537 1.51154 7.71462 1.63874 7.88043C1.75647 8.03316 1.92114 8.16123 2.17649 8.32192C2.55276 8.55818 2.79458 8.9607 2.79458 9.40458C2.79458 9.84846 2.55276 10.251 2.17649 10.4864C1.92114 10.6479 1.75568 10.776 1.63874 10.9287C1.51154 11.0945 1.41824 11.2838 1.36419 11.4857C1.31014 11.6875 1.29639 11.8981 1.32373 12.1053C1.36509 12.4187 1.55044 12.7401 1.92034 13.382C2.29184 14.024 2.47719 14.3446 2.72776 14.5379C2.89357 14.6651 3.08282 14.7584 3.28469 14.8124C3.48656 14.8665 3.6971 14.8802 3.90429 14.8529C4.09521 14.8274 4.28851 14.7495 4.55579 14.6079C4.74708 14.5032 4.96183 14.4488 5.17988 14.45C5.39793 14.4511 5.61212 14.5076 5.80232 14.6142C6.18654 14.837 6.41485 15.2466 6.43076 15.6905C6.44189 15.9928 6.47053 16.1996 6.54451 16.377C6.62447 16.5702 6.74171 16.7457 6.88953 16.8935C7.03736 17.0413 7.21286 17.1586 7.40602 17.2385C7.69797 17.3595 8.06866 17.3595 8.81006 17.3595C9.55145 17.3595 9.92215 17.3595 10.2141 17.2385C10.4073 17.1586 10.5828 17.0413 10.7306 16.8935C10.8784 16.7457 10.9956 16.5702 11.0756 16.377C11.1488 16.1996 11.1782 15.9928 11.1894 15.6905C11.2053 15.2466 11.4336 14.8362 11.8178 14.6142C12.008 14.5076 12.2222 14.4511 12.4402 14.45C12.6583 14.4488 12.873 14.5032 13.0643 14.6079C13.3316 14.7495 13.5249 14.8274 13.7158 14.8529C13.923 14.8802 14.1336 14.8665 14.3354 14.8124C14.5373 14.7584 14.7265 14.6651 14.8924 14.5379C15.1429 14.3453 15.3283 14.024 15.699 13.382C16.0697 12.7401 16.2558 12.4195 16.2964 12.1053C16.3237 11.8981 16.31 11.6875 16.2559 11.4857C16.2019 11.2838 16.1086 11.0945 15.9814 10.9287C15.8636 10.776 15.699 10.6479 15.4436 10.4872C15.2573 10.374 15.1028 10.2152 14.9947 10.0258C14.8865 9.83641 14.8283 9.62264 14.8255 9.40458C14.8255 8.9607 15.0674 8.55818 15.4436 8.32272C15.699 8.16123 15.8644 8.03316 15.9814 7.88043C16.1086 7.71462 16.2019 7.52537 16.2559 7.3235C16.31 7.12163 16.3237 6.91109 16.2964 6.7039C16.255 6.39048 16.0697 6.0691 15.6998 5.42714C15.3283 4.78518 15.1429 4.4646 14.8924 4.2713C14.7265 4.14409 14.5373 4.0508 14.3354 3.99675C14.1336 3.9427 13.923 3.92895 13.7158 3.95629C13.5249 3.98174 13.3316 4.0597 13.0635 4.2013C12.8723 4.30584 12.6577 4.36009 12.4398 4.35898C12.2219 4.35787 12.0079 4.30142 11.8178 4.19493C11.6304 4.08349 11.4744 3.92625 11.3645 3.73798C11.2546 3.54971 11.1943 3.33659 11.1894 3.11864C11.1782 2.81635 11.1496 2.60953 11.0756 2.43213C10.9956 2.23897 10.8784 2.06347 10.7306 1.91564C10.5828 1.76782 10.4073 1.65058 10.2141 1.57062Z" stroke="#8392A5" stroke-width="1.2"/>
</svg>
