<svg width="18" height="15" viewBox="0 0 18 15" fill="none" xmlns="http://www.w3.org/2000/svg">
<path d="M1.31006 11.8052C1.31006 11.0572 1.31006 10.6836 1.47086 10.4052C1.57618 10.2228 1.72765 10.0713 1.91006 9.96598C2.18846 9.80518 2.56206 9.80518 3.31006 9.80518C4.05806 9.80518 4.43166 9.80518 4.71006 9.96598C4.89247 10.0713 5.04394 10.2228 5.14926 10.4052C5.31006 10.6836 5.31006 11.0572 5.31006 11.8052C5.31006 12.5532 5.31006 12.9268 5.14926 13.2052C5.04394 13.3876 4.89247 13.5391 4.71006 13.6444C4.43166 13.8052 4.05806 13.8052 3.31006 13.8052C2.56206 13.8052 2.18846 13.8052 1.91006 13.6444C1.72765 13.5391 1.57618 13.3876 1.47086 13.2052C1.31006 12.9268 1.31006 12.5532 1.31006 11.8052Z" stroke="#8392A5" stroke-width="1.2"/>
<path opacity="0.5" d="M7.31006 11.8052C7.31006 11.0572 7.31006 10.6836 7.47086 10.4052C7.57618 10.2228 7.72765 10.0713 7.91006 9.96598C8.18846 9.80518 8.56206 9.80518 9.31006 9.80518C10.0581 9.80518 10.4317 9.80518 10.7101 9.96598C10.8925 10.0713 11.0439 10.2228 11.1493 10.4052C11.3101 10.6836 11.3101 11.0572 11.3101 11.8052C11.3101 12.5532 11.3101 12.9268 11.1493 13.2052C11.0439 13.3876 10.8925 13.5391 10.7101 13.6444C10.4317 13.8052 10.0581 13.8052 9.31006 13.8052C8.56206 13.8052 8.18846 13.8052 7.91006 13.6444C7.72765 13.5391 7.57618 13.3876 7.47086 13.2052C7.31006 12.9268 7.31006 12.5532 7.31006 11.8052Z" stroke="#8392A5" stroke-width="1.2"/>
<path opacity="0.7" d="M13.3101 11.8052C13.3101 11.0572 13.3101 10.6836 13.4709 10.4052C13.5762 10.2228 13.7277 10.0713 13.9101 9.96598C14.1885 9.80518 14.5621 9.80518 15.3101 9.80518C16.0581 9.80518 16.4317 9.80518 16.7101 9.96598C16.8925 10.0713 17.0439 10.2228 17.1493 10.4052C17.3101 10.6836 17.3101 11.0572 17.3101 11.8052C17.3101 12.5532 17.3101 12.9268 17.1493 13.2052C17.0439 13.3876 16.8925 13.5391 16.7101 13.6444C16.4317 13.8052 16.0581 13.8052 15.3101 13.8052C14.5621 13.8052 14.1885 13.8052 13.9101 13.6444C13.7277 13.5391 13.5762 13.3876 13.4709 13.2052C13.3101 12.9268 13.3101 12.5532 13.3101 11.8052Z" stroke="#8392A5" stroke-width="1.2"/>
<path d="M3.31006 9.80488V5.00488C3.31006 3.11928 3.31006 2.17608 3.89566 1.59048C4.48126 1.00488 5.42446 1.00488 7.31006 1.00488H11.3101C13.1957 1.00488 14.1381 1.00488 14.7245 1.59048C15.3101 2.17608 15.3101 3.11928 15.3101 5.00488V7.40488M15.3101 7.40488L16.9101 5.80488M15.3101 7.40488L13.7101 5.80488" stroke="#8392A5" stroke-width="1.2" stroke-linecap="round" stroke-linejoin="round"/>
</svg>
