<svg width="16" height="15" viewBox="0 0 16 15" fill="none" xmlns="http://www.w3.org/2000/svg">
<path opacity="0.5" d="M1.31006 3.50911C1.31006 2.75767 1.60857 2.037 2.13992 1.50565C2.67128 0.974292 3.39195 0.675781 4.14339 0.675781C4.89484 0.675781 5.61551 0.974292 6.14686 1.50565C6.67821 2.037 6.97673 2.75767 6.97673 3.50911C6.97673 4.26056 6.67821 4.98123 6.14686 5.51258C5.61551 6.04394 4.89484 6.34245 4.14339 6.34245C3.39195 6.34245 2.67128 6.04394 2.13992 5.51258C1.60857 4.98123 1.31006 4.26056 1.31006 3.50911ZM9.10173 11.3008C9.10173 10.5493 9.40024 9.82866 9.93159 9.29731C10.4629 8.76596 11.1836 8.46745 11.9351 8.46745C12.6865 8.46745 13.4072 8.76596 13.9385 9.29731C14.4699 9.82866 14.7684 10.5493 14.7684 11.3008C14.7684 12.0522 14.4699 12.7729 13.9385 13.3042C13.4072 13.8356 12.6865 14.1341 11.9351 14.1341C11.1836 14.1341 10.4629 13.8356 9.93159 13.3042C9.40024 12.7729 9.10173 12.0522 9.10173 11.3008Z" stroke="#8392A5" stroke-width="1.0625"/>
<path d="M14.7684 3.50911C14.7684 2.75767 14.4699 2.037 13.9385 1.50565C13.4072 0.974292 12.6865 0.675781 11.9351 0.675781C11.1836 0.675781 10.4629 0.974292 9.93159 1.50565C9.40024 2.037 9.10173 2.75767 9.10173 3.50911C9.10173 4.26056 9.40024 4.98123 9.93159 5.51258C10.4629 6.04394 11.1836 6.34245 11.9351 6.34245C12.6865 6.34245 13.4072 6.04394 13.9385 5.51258C14.4699 4.98123 14.7684 4.26056 14.7684 3.50911ZM6.97673 11.3008C6.97673 10.5493 6.67821 9.82866 6.14686 9.29731C5.61551 8.76596 4.89484 8.46745 4.14339 8.46745C3.39195 8.46745 2.67128 8.76596 2.13992 9.29731C1.60857 9.82866 1.31006 10.5493 1.31006 11.3008C1.31006 12.0522 1.60857 12.7729 2.13992 13.3042C2.67128 13.8356 3.39195 14.1341 4.14339 14.1341C4.89484 14.1341 5.61551 13.8356 6.14686 13.3042C6.67821 12.7729 6.97673 12.0522 6.97673 11.3008Z" stroke="#8392A5" stroke-width="1.0625"/>
</svg>
