<svg width="18" height="15" viewBox="0 0 18 15" fill="none" xmlns="http://www.w3.org/2000/svg">
<path d="M4.50977 4.20459H7.70982" stroke="#8392A5" stroke-width="1.2" stroke-linecap="round" stroke-linejoin="round"/>
<path d="M16.3764 5.00488H14.2948C12.8668 5.00488 11.71 6.0793 11.71 7.40492C11.71 8.73054 12.8676 9.80496 14.294 9.80496H16.3764C16.4436 9.80496 16.4764 9.80496 16.5044 9.80336C16.9364 9.77696 17.2805 9.45776 17.3085 9.05695C17.3101 9.03135 17.3101 9.00015 17.3101 8.93855V5.8713C17.3101 5.8097 17.3101 5.7785 17.3085 5.7529C17.2797 5.35209 16.9364 5.03288 16.5044 5.00648C16.4772 5.00488 16.4436 5.00488 16.3764 5.00488Z" stroke="#8392A5" stroke-width="1.2"/>
<path opacity="0.4" d="M16.4823 5.00495C16.4199 3.50732 16.2199 2.58891 15.5727 1.9425C14.6359 1.00488 13.1271 1.00488 10.1102 1.00488H7.71016C4.69331 1.00488 3.18449 1.00488 2.24767 1.9425C1.31006 2.87931 1.31006 4.38814 1.31006 7.40499C1.31006 10.4218 1.31006 11.9307 2.24767 12.8675C3.18449 13.8051 4.69331 13.8051 7.71016 13.8051H10.1102C13.1271 13.8051 14.6359 13.8051 15.5727 12.8675C16.2199 12.2211 16.4207 11.3027 16.4823 9.80503" stroke="#8392A5" stroke-width="1.2"/>
<path opacity="0.5" d="M14.103 7.40527H14.1094" stroke="#8392A5" stroke-width="1.2" stroke-linecap="round" stroke-linejoin="round"/>
</svg>
