<svg width="18" height="15" viewBox="0 0 18 15" fill="none" xmlns="http://www.w3.org/2000/svg">
<path d="M1 3.52283L3.20198 1.32084C3.59251 0.930319 4.22567 0.930318 4.6162 1.32084L6.81818 3.52283" stroke="#8A94A6" stroke-width="1.2" stroke-linecap="round" stroke-linejoin="round"/>
<path d="M8.27282 13.7046L6.81827 13.7046C6.04673 13.7046 5.30679 13.3981 4.76123 12.8525C4.21567 12.307 3.90918 11.567 3.90918 10.7955L3.90918 0.61368" stroke="#8A94A6" stroke-width="1.2" stroke-linecap="round" stroke-linejoin="round"/>
<path d="M16.9998 10.7955L14.7978 12.9975C14.4073 13.388 13.7741 13.388 13.3836 12.9975L11.1816 10.7955" stroke="#8A94A6" stroke-width="1.2" stroke-linecap="round" stroke-linejoin="round"/>
<path d="M9.72705 0.61368L11.1816 0.61368C11.9531 0.61368 12.6931 0.920173 13.2386 1.46573C13.7842 2.01129 14.0907 2.75123 14.0907 3.52277L14.0907 13.7046" stroke="#8A94A6" stroke-width="1.2" stroke-linecap="round" stroke-linejoin="round"/>
</svg>
