<svg width="16" height="17" viewBox="0 0 16 17" fill="none" xmlns="http://www.w3.org/2000/svg">
<path opacity="0.5" d="M1.31006 7.17351C1.31006 4.68618 1.31006 3.44251 1.60406 3.02406C1.89728 2.6064 3.06628 2.20584 5.40506 1.40551L5.85073 1.25306C7.0695 0.835398 7.6785 0.626953 8.31006 0.626953C8.94084 0.626953 9.55061 0.835398 10.7694 1.25306L11.2151 1.40551C13.5538 2.20584 14.7228 2.6064 15.0161 3.02406C15.3101 3.44251 15.3101 4.68695 15.3101 7.17351V8.39773C15.3101 12.7828 12.0131 14.9116 9.94417 15.8146C9.38339 16.0596 9.10339 16.1825 8.31006 16.1825C7.51673 16.1825 7.23673 16.0596 6.67595 15.8146C4.60706 14.9108 1.31006 12.7836 1.31006 8.39773V7.17351Z" stroke="#8392A5" stroke-width="1.2"/>
<path d="M8.30995 7.62722C9.16906 7.62722 9.86551 6.93078 9.86551 6.07167C9.86551 5.21256 9.16906 4.51611 8.30995 4.51611C7.45084 4.51611 6.75439 5.21256 6.75439 6.07167C6.75439 6.93078 7.45084 7.62722 8.30995 7.62722Z" stroke="#8392A5" stroke-width="1.2"/>
<path d="M11.4214 10.7382C11.4214 11.5976 11.4214 12.2937 8.31033 12.2937C5.19922 12.2937 5.19922 11.5976 5.19922 10.7382C5.19922 9.87873 6.59144 9.18262 8.31033 9.18262C10.0292 9.18262 11.4214 9.87873 11.4214 10.7382Z" stroke="#8392A5" stroke-width="1.2"/>
</svg>
