<svg width="18" height="18" viewBox="0 0 18 18" fill="none" xmlns="http://www.w3.org/2000/svg">
<path opacity="0.5" d="M4.62366 4.71839C6.83326 2.50959 7.93726 1.40479 9.31006 1.40479C10.6829 1.40479 11.7869 2.50879 13.9965 4.71839C16.2053 6.92799 17.3101 8.03199 17.3101 9.40479C17.3101 10.7776 16.2061 11.8816 13.9965 14.0912C11.7869 16.3 10.6829 17.4048 9.31006 17.4048C7.93726 17.4048 6.83326 16.3008 4.62366 14.0912C2.41486 11.8816 1.31006 10.7776 1.31006 9.40479C1.31006 8.03199 2.41406 6.92799 4.62366 4.71839Z" stroke="#8392A5" stroke-width="1.2"/>
<path d="M6.31007 11.0049C6.31007 11.164 6.37328 11.3167 6.48581 11.4292C6.59833 11.5417 6.75094 11.6049 6.91007 11.6049C7.0692 11.6049 7.22181 11.5417 7.33433 11.4292C7.44685 11.3167 7.51007 11.164 7.51007 11.0049H6.31007ZM11.7101 9.40491L12.1341 9.82891C12.2464 9.71641 12.3095 9.56391 12.3095 9.40491C12.3095 9.24591 12.2464 9.09341 12.1341 8.98091L11.7101 9.40491ZM10.5341 7.38091C10.4791 7.32196 10.4129 7.27468 10.3393 7.24188C10.2657 7.20909 10.1862 7.19146 10.1057 7.19003C10.0251 7.18861 9.9451 7.20343 9.87039 7.23361C9.79568 7.26379 9.72781 7.3087 9.67084 7.36568C9.61386 7.42265 9.56895 7.49052 9.53877 7.56523C9.50859 7.63994 9.49377 7.71996 9.4952 7.80053C9.49662 7.88109 9.51425 7.96054 9.54704 8.03414C9.57984 8.10774 9.62712 8.17398 9.68607 8.22891L10.5341 7.38091ZM9.68607 10.5809C9.62712 10.6358 9.57984 10.7021 9.54704 10.7757C9.51425 10.8493 9.49662 10.9287 9.4952 11.0093C9.49377 11.0899 9.50859 11.1699 9.53877 11.2446C9.56895 11.3193 9.61386 11.3872 9.67084 11.4441C9.72781 11.5011 9.79568 11.546 9.87039 11.5762C9.9451 11.6064 10.0251 11.6212 10.1057 11.6198C10.1862 11.6184 10.2657 11.6007 10.3393 11.5679C10.4129 11.5351 10.4791 11.4879 10.5341 11.4289L9.68607 10.5809ZM8.51007 10.0049H11.7101V8.80491H8.51007V10.0049ZM12.1341 8.98091L10.5341 7.38091L9.68607 8.22891L11.2861 9.82891L12.1341 8.98091ZM11.2861 8.98091L9.68607 10.5809L10.5341 11.4289L12.1341 9.82891L11.2861 8.98091ZM7.51007 11.0049C7.51007 10.6105 7.51167 10.3753 7.53407 10.2073C7.53911 10.1589 7.5504 10.1113 7.56767 10.0657L7.56847 10.0633L6.72047 9.21531C6.47247 9.46251 6.38287 9.76251 6.34447 10.0473C6.30847 10.3145 6.31007 10.6449 6.31007 11.0049H7.51007ZM8.51007 8.80491C8.15007 8.80491 7.81967 8.80331 7.55247 8.83931C7.26767 8.87771 6.96767 8.96731 6.72047 9.21531L7.56847 10.0633L7.57087 10.0625C7.61642 10.0452 7.66402 10.0339 7.71247 10.0289C7.88047 10.0065 8.11567 10.0049 8.51007 10.0049V8.80491Z" fill="#8392A5"/>
</svg>
