<svg width="18" height="18" viewBox="0 0 18 18" fill="none" xmlns="http://www.w3.org/2000/svg">
<path opacity="0.5" d="M9.31016 9.40449C10.6356 9.40449 11.7102 8.32998 11.7102 7.00449C11.7102 5.67901 10.6356 4.60449 9.31016 4.60449C7.98467 4.60449 6.91016 5.67901 6.91016 7.00449C6.91016 8.32998 7.98467 9.40449 9.31016 9.40449Z" stroke="#8392A5" stroke-width="1.2"/>
<path d="M9.31006 17.4048C13.7283 17.4048 17.3101 13.8231 17.3101 9.40479C17.3101 4.98651 13.7283 1.40479 9.31006 1.40479C4.89178 1.40479 1.31006 4.98651 1.31006 9.40479C1.31006 13.8231 4.89178 17.4048 9.31006 17.4048Z" stroke="#8392A5" stroke-width="1.2"/>
<path opacity="0.5" d="M14.0862 15.8047C13.9582 13.4911 13.2502 11.8047 9.31018 11.8047C5.37018 11.8047 4.66218 13.4911 4.53418 15.8047" stroke="#8392A5" stroke-width="1.2" stroke-linecap="round"/>
</svg>
