<svg width="17" height="17" viewBox="0 0 17 17" fill="none" xmlns="http://www.w3.org/2000/svg">
<path d="M17 8.5C17 3.80558 13.1944 0 8.5 0C3.80558 0 0 3.80558 0 8.5C0 13.1944 3.80558 17 8.5 17C13.1944 17 17 13.1944 17 8.5Z" fill="#1273EB"/>
<path d="M12.0152 9.14604C12.0152 10.5801 11.3873 13.4804 8.06633 13.4804C7.05961 13.4804 6.24348 12.6642 6.24348 11.6575V8.08919H4.98541V6.79759H6.24348V5.59696C6.24348 5.59696 6.29063 5.12747 5.69264 5.12747H5.09432V3.51978H5.69264C7.13532 3.51978 8.06633 3.72331 8.06633 5.59696V6.79759H9.3244V8.08919H8.06633V11.8441C9.2374 11.8441 9.77231 11.0343 10.0167 10.3022C9.61692 10.0717 9.34797 9.64077 9.34797 9.14638C9.34797 8.40993 9.9453 7.81294 10.6814 7.81294C11.5048 7.81294 12.0148 8.46671 12.0148 9.14638L12.0152 9.14604Z" fill="white"/>
</svg>
