<svg width="17" height="17" viewBox="0 0 17 17" fill="none" xmlns="http://www.w3.org/2000/svg">
<path d="M17 8.50024C17 3.80582 13.1944 0.000244141 8.5 0.000244141C3.80558 0.000244141 0 3.80582 0 8.50024C0 13.1947 3.80558 17.0002 8.5 17.0002C13.1944 17.0002 17 13.1947 17 8.50024Z" fill="#FF565E"/>
<path d="M12.0152 9.14629C12.0152 10.5803 11.3873 13.4806 8.06633 13.4806C7.05961 13.4806 6.24348 12.6645 6.24348 11.6578V8.08943H4.98541V6.79783H6.24348V5.59721C6.24348 5.59721 6.29063 5.12771 5.69264 5.12771H5.09432V3.52002H5.69264C7.13532 3.52002 8.06633 3.72355 8.06633 5.59721V6.79783H9.3244V8.08943H8.06633V11.8444C9.2374 11.8444 9.77231 11.0346 10.0167 10.3024C9.61692 10.072 9.34797 9.64102 9.34797 9.14662C9.34797 8.41018 9.9453 7.81318 10.6814 7.81318C11.5048 7.81318 12.0148 8.46695 12.0148 9.14662L12.0152 9.14629Z" fill="white"/>
</svg>
